<svg width="301" height="392" viewBox="0 0 301 392" fill="none" xmlns="http://www.w3.org/2000/svg">
<path d="M44.6895 255.409C44.3549 258.674 38.0212 305.766 36.7103 317.177C35.3994 328.589 26.8927 358.347 24.4639 362.474C27.003 364.049 34.5295 368.255 34.5295 368.255C34.5295 368.255 57.4712 332.894 58.4081 329.527C59.345 326.16 63.3326 309.881 63.3326 309.881L57.8452 252.259L44.6895 255.409Z" fill="#007DB5"/>
<path opacity="0.1" d="M201.031 71.1516C224.28 91.0138 242.21 116.83 241.419 141.54C240.628 166.249 221.17 190.03 204.369 211.699C187.568 233.37 173.374 252.834 152.278 266.018C131.182 279.201 103.237 285.892 80.4448 277.784C57.6527 269.676 40.0015 246.837 28.8022 222.619C17.6029 198.401 12.6824 172.77 21.5079 154.27C30.3334 135.771 52.8973 124.343 71.7334 103.745C90.5694 83.1461 105.725 53.2187 127.545 45.292C149.364 37.3651 177.841 51.2931 201.031 71.1516Z" fill="#696969"/>
<path d="M41.7994 195.715C40.2563 193.542 36.7568 184.178 36.7568 182.327C36.7568 180.476 47.3852 143.422 48.0544 140.271C48.7236 137.121 48.704 128.21 48.0544 125.277C48.3379 124.182 49.0898 123.827 49.2865 124.489C49.8023 124.906 52.735 126.667 52.735 126.667C52.735 126.667 59.5923 136.117 58.061 138.251C56.8067 139.944 55.7091 141.747 54.7819 143.638C54.4118 146.021 48.9992 176.715 49.2708 178.685C49.5425 180.654 54.9945 190.581 55.1362 191.286C53.9591 191.912 42.4922 196.445 41.7994 195.715Z" fill="#FFB6B6"/>
<path d="M46.9312 122.309C47.4129 122.031 47.922 122.243 48.0884 122.802C48.1504 123.011 48.0317 123.23 47.8234 123.292C47.615 123.354 47.3958 123.235 47.3338 123.026L47.3282 123.002L47.3273 122.988L47.3238 122.991C47.1817 123.073 47.0221 123.301 46.9111 123.629L46.884 123.714L46.8934 123.759C47.0237 124.403 47.1267 125.287 47.2024 126.311L47.2354 126.794L47.2645 127.295L47.2897 127.811C47.2975 127.985 47.3047 128.162 47.3111 128.341L47.3286 128.881L47.3422 129.431C47.3441 129.524 47.3459 129.616 47.3476 129.709L47.3553 130.27L47.3593 130.834V131.399L47.3554 131.965L47.3477 132.527C47.3461 132.621 47.3443 132.713 47.3424 132.807L47.3288 133.361C47.3263 133.453 47.3236 133.544 47.3207 133.636L47.3012 134.177C47.2977 134.267 47.294 134.356 47.2901 134.444L47.265 134.969C47.2605 135.055 47.2558 135.141 47.2509 135.226L47.2199 135.727C47.1432 136.879 47.0346 137.885 46.8946 138.625L46.7553 139.294L46.6425 139.763L46.4228 140.603L45.676 143.339L41.6148 157.98C41.5567 158.189 41.3397 158.312 41.1302 158.254C40.9207 158.196 40.7981 157.978 40.8562 157.769L45.3417 141.582L45.7866 139.928L45.8987 139.489L45.9894 139.11L46.0471 138.843L46.0934 138.617C46.1622 138.284 46.2235 137.883 46.2775 137.431L46.3219 137.031C46.329 136.963 46.336 136.893 46.3428 136.823L46.3818 136.388C46.388 136.313 46.394 136.238 46.3999 136.163L46.4335 135.698L46.4634 135.216C46.4681 135.134 46.4727 135.052 46.477 134.969L46.5014 134.465L46.5224 133.949L46.5396 133.423L46.5532 132.888L46.5632 132.348L46.5696 131.804L46.5723 131.257C46.5725 131.166 46.5725 131.075 46.5723 130.984L46.5697 130.438L46.5633 129.896L46.5534 129.359C46.5515 129.27 46.5493 129.182 46.5471 129.093L46.5317 128.568C46.5288 128.481 46.5258 128.395 46.5227 128.309L46.5018 127.8L46.4774 127.304L46.4494 126.824L46.4177 126.362C46.401 126.135 46.3828 125.916 46.3634 125.705L46.3227 125.295L46.2783 124.91C46.2245 124.476 46.1632 124.097 46.0946 123.787C46.0812 123.727 46.0823 123.663 46.0979 123.603C46.2549 122.996 46.559 122.523 46.9312 122.309Z" fill="#141414"/>
<path d="M38.7467 166.873C38.9563 166.931 39.0797 167.147 39.0222 167.357L37.8086 171.814L36.9316 175.096L36.4294 177.022L36.066 178.459L35.8385 179.402L35.7669 179.712L35.6807 180.108L35.6284 180.37L35.6055 180.498L35.5891 180.605L35.5818 180.664L35.5764 180.734L35.576 180.752C35.576 180.918 35.6062 181.149 35.6621 181.432L35.7089 181.655C35.726 181.732 35.7447 181.814 35.7649 181.897L35.8296 182.156C35.8411 182.201 35.853 182.245 35.8653 182.292L35.9425 182.575L36.0275 182.875L36.12 183.187L36.2716 183.678L36.3806 184.021L36.5552 184.552L36.7418 185.102L36.9388 185.668L37.145 186.243L37.359 186.827L37.5053 187.217L37.729 187.805L37.9568 188.39L38.1102 188.777L38.3415 189.349L38.496 189.723L38.727 190.271L38.8799 190.627L39.0316 190.973L39.1815 191.309L39.3292 191.632L39.4744 191.944C39.4984 191.994 39.5222 192.044 39.5459 192.094L39.6865 192.384C39.7095 192.431 39.7325 192.477 39.7554 192.523L39.8903 192.789L40.0211 193.037L40.1472 193.267C40.2914 193.525 40.4253 193.742 40.546 193.912C40.6719 194.09 40.6302 194.336 40.453 194.462C40.2756 194.587 40.03 194.546 39.9041 194.368C39.7763 194.189 39.6354 193.961 39.4844 193.692L39.3526 193.453C39.3302 193.412 39.3077 193.37 39.2849 193.327L39.1464 193.061C39.1231 193.015 39.0994 192.968 39.0757 192.92L38.9315 192.63L38.784 192.323L38.6337 192.002L38.481 191.669L38.3261 191.324L38.1697 190.968L38.012 190.602L37.8537 190.228L37.6154 189.654L37.4569 189.264L37.299 188.869L37.0643 188.27L36.9099 187.869L36.6824 187.265L36.5342 186.864L36.3178 186.267L36.1782 185.872L36.0429 185.483L35.9122 185.1L35.7865 184.724L35.6662 184.356L35.5519 183.998L35.4439 183.649L35.3425 183.313L35.2483 182.989L35.1617 182.678C35.1479 182.628 35.1345 182.578 35.1214 182.529L35.0468 182.242C35.0116 182.101 34.9797 181.968 34.9512 181.841L34.8989 181.597C34.8355 181.284 34.7978 181.022 34.7902 180.824L34.7891 180.73L34.7943 180.652L34.8111 180.514L34.8391 180.34L34.8898 180.071L34.9579 179.745L35.0627 179.277L35.2412 178.523L35.4043 177.861L35.6606 176.849L36.0019 175.533L36.3523 174.205L36.906 172.135L37.8599 168.621L38.2629 167.149C38.3204 166.94 38.537 166.816 38.7467 166.873Z" fill="#141414"/>
<path d="M216.11 0L29.3799 48.03L72.2196 214.695L258.951 166.665L216.11 0Z" fill="#2B2D2F"/>
<path opacity="0.1" d="M78.1031 35.4941L29.3799 48.0266L72.2197 214.692L120.943 202.159L78.1031 35.4941Z" fill="#C2C2C2"/>
<path opacity="0.2" d="M59.9478 81.5033C68.5549 81.5033 75.5322 74.5236 75.5322 65.9136C75.5322 57.3036 68.5549 50.3237 59.9478 50.3237C51.3407 50.3237 44.3633 57.3036 44.3633 65.9136C44.3633 74.5236 51.3407 81.5033 59.9478 81.5033Z" fill="#EAF0FF"/>
<path opacity="0.2" d="M84.4927 84.6943L47.874 94.1133L48.7789 97.6336L85.3975 88.2145L84.4927 84.6943Z" fill="#EAF0FF"/>
<path opacity="0.2" d="M86.6734 93.1689L50.0547 102.588L50.9595 106.108L87.5782 96.6893L86.6734 93.1689Z" fill="#EAF0FF"/>
<path opacity="0.2" d="M129.201 108.635C131.592 108.635 133.531 106.695 133.531 104.303C133.531 101.911 131.592 99.9712 129.201 99.9712C126.809 99.9712 124.87 101.911 124.87 104.303C124.87 106.695 126.809 108.635 129.201 108.635Z" fill="#B2C3FB"/>
<path opacity="0.2" d="M208.309 82.0728L138.899 99.926L139.804 103.446L209.214 85.5929L208.309 82.0728Z" fill="#D8DFFF"/>
<path opacity="0.2" d="M192.566 20.8013L108.761 42.3573L122.919 97.4396L206.725 75.8832L192.566 20.8013Z" fill="white"/>
<path opacity="0.2" d="M149.227 186.553C151.618 186.553 153.557 184.614 153.557 182.222C153.557 179.829 151.618 177.89 149.227 177.89C146.836 177.89 144.897 179.829 144.897 182.222C144.897 184.614 146.836 186.553 149.227 186.553Z" fill="#B2C3FB"/>
<path opacity="0.2" d="M228.339 159.99L158.93 177.844L159.835 181.363L229.244 163.51L228.339 159.99Z" fill="#D8DFFF"/>
<path opacity="0.2" d="M212.592 98.7178L128.786 120.274L142.945 175.356L226.75 153.8L212.592 98.7178Z" fill="white"/>
<path d="M22.5378 365.522L18.6603 372.355L13.8066 376.096L27.0726 391.52H37.9569L30.8673 380.572L32.064 370.945" fill="#FFB6B6"/>
<path d="M72.374 376.407L74.2793 383.314L72.9369 391.52H102.224L85.0297 381.364L85.447 376.407" fill="#FFB6B6"/>
<path d="M55.7849 249.908C56.0031 249.856 56.2173 249.996 56.2618 250.21L56.2685 250.253L61.7559 307.863C61.7587 307.893 61.7582 307.922 61.7544 307.951L61.7439 308.004L60.6181 312.582L59.581 316.774L58.5487 320.916L57.5858 324.727L57.2599 325.994L56.9238 327.268L56.8188 327.652L56.8053 327.698L56.7718 327.799L56.7293 327.914L56.6779 328.041L56.6176 328.181L56.5107 328.416C56.4977 328.444 56.4843 328.472 56.4707 328.5L56.3841 328.679L56.238 328.971L56.0726 329.291L55.8882 329.638L55.7546 329.885L55.4625 330.416L55.2216 330.846L54.7794 331.622L54.2867 332.472L53.7443 333.394L53.3955 333.981L52.7755 335.017L52.108 336.123L51.5402 337.056L50.476 338.792L49.3236 340.657L48.4477 342.066L46.9571 344.451L45.3596 346.992L43.792 349.474L42.719 351.166L41.0829 353.738L39.423 356.338L37.7481 358.953L34.9019 363.379L32.8911 366.489C32.7782 366.663 32.5499 366.719 32.3689 366.618L30.6661 365.663L29.2341 364.854L27.829 364.058L25.617 362.792L24.3085 362.034L23.4719 361.543L22.7678 361.122L22.3758 360.883C22.3458 360.865 22.3165 360.846 22.2878 360.828C22.1057 360.715 22.0474 360.478 22.1566 360.294C22.7147 359.351 23.5232 357.277 24.4633 354.492L24.7354 353.677C24.8732 353.261 25.0133 352.83 25.1556 352.387L25.4429 351.485L25.7353 350.552C25.7844 350.394 25.8336 350.235 25.8832 350.074L26.1818 349.098L26.484 348.097C26.5346 347.928 26.5854 347.758 26.6362 347.588L26.9424 346.551L27.2506 345.495L27.5602 344.421L27.8704 343.331L28.1807 342.227L28.4906 341.111L28.7992 339.986L29.1062 338.854L29.4108 337.717L29.7123 336.577L30.0104 335.436L30.3042 334.297L30.5931 333.161L30.8767 332.031C30.9235 331.843 30.97 331.656 31.0162 331.47L31.2905 330.352C31.3356 330.166 31.3805 329.982 31.4251 329.797L31.6886 328.698L31.9442 327.614C32.0281 327.255 32.1105 326.899 32.1914 326.545L32.4295 325.495L32.6577 324.467C32.6949 324.298 32.7318 324.13 32.768 323.962L32.9806 322.969C33.0841 322.479 33.1834 321.999 33.2781 321.53L33.4613 320.608C33.8446 318.643 34.1377 316.902 34.3124 315.485L34.5999 313.064L35.368 306.903L35.8943 302.775C35.9219 302.559 36.1192 302.407 36.3348 302.434C36.5505 302.462 36.7028 302.659 36.6752 302.875L35.9659 308.451L35.3069 313.778L35.1328 315.254C34.9561 316.798 34.6281 318.757 34.1882 320.992L34.0064 321.9C33.8813 322.515 33.7486 323.149 33.6091 323.798L33.3948 324.782C33.3583 324.949 33.3213 325.115 33.284 325.283L33.0554 326.299C33.0165 326.47 32.9773 326.642 32.9377 326.814L32.696 327.859L32.4463 328.918L32.1891 329.99C32.1457 330.169 32.1019 330.35 32.0579 330.53L31.7906 331.62L31.5172 332.717C31.4712 332.902 31.4249 333.085 31.3784 333.269L31.0971 334.377L30.8109 335.487C30.7629 335.672 30.7147 335.857 30.6663 336.043L30.3743 337.156L30.0791 338.267L29.7811 339.375L29.4811 340.478L29.1794 341.573L28.8766 342.66L28.5735 343.735L28.2705 344.796L27.9681 345.842L27.667 346.873L27.3676 347.883C27.3179 348.049 27.2683 348.216 27.2187 348.38L26.9231 349.358L26.6307 350.312C26.5822 350.469 26.5339 350.625 26.4858 350.78L26.1992 351.694C26.1517 351.844 26.1045 351.992 26.0575 352.14L25.778 353.01C25.7318 353.152 25.6859 353.293 25.6402 353.433L25.369 354.253C24.4751 356.933 23.6857 359.03 23.094 360.212L23.0208 360.355L23.653 360.735L24.3328 361.136L25.7964 361.987L27.3108 362.856L28.6814 363.636L30.5741 364.707L32.431 365.751L34.8666 361.979L37.0854 358.528L38.7597 355.914L40.419 353.315L41.5124 351.597L42.5926 349.896L43.6568 348.215L45.6879 344.992L47.1977 342.582L48.4339 340.597L49.5882 338.73L50.6578 336.987L51.7728 335.153L52.6515 333.691L53.3305 332.546L53.8427 331.671L54.126 331.181L54.4756 330.569L54.8664 329.873L55.1414 329.371L55.3255 329.028L55.4901 328.713L55.6353 328.427L55.7606 328.17L55.8661 327.943L55.9251 327.807L55.9751 327.686L56.0161 327.578L56.0479 327.483L56.079 327.373L56.3663 326.3L56.5852 325.459L57.1733 323.155L58.133 319.333L58.9869 315.899L60.9656 307.872L55.5274 250.779L43.0819 253.759L42.9126 255.152L42.0616 261.748L39.4896 281.321C39.4613 281.537 39.2636 281.688 39.048 281.66C38.8325 281.632 38.6807 281.434 38.7091 281.218L41.4892 260.049L42.1487 254.917L42.291 253.747L42.3292 253.401C42.3444 253.252 42.4435 253.124 42.5817 253.072L42.6293 253.058L55.7849 249.908Z" fill="#141414"/>
<path d="M86.8688 371.251C87.0863 371.251 87.2625 371.428 87.2625 371.645C87.2625 371.847 87.1105 372.014 86.9147 372.037L86.8688 372.039H67.4581C67.2407 372.039 67.0645 371.863 67.0645 371.645C67.0645 371.443 67.2163 371.277 67.4122 371.254L67.4581 371.251H86.8688Z" fill="#141414"/>
<path d="M86.8688 374.437C87.0863 374.437 87.2625 374.614 87.2625 374.831C87.2625 375.032 87.1105 375.199 86.9147 375.222L86.8688 375.225H67.4581C67.2407 375.225 67.0645 375.048 67.0645 374.831C67.0645 374.629 67.2163 374.462 67.4122 374.44L67.4581 374.437H86.8688Z" fill="#141414"/>
<path d="M83.9071 374.439C84.1083 374.456 84.2613 374.621 84.2675 374.818L84.2663 374.864L83.8697 379.574L100.852 389.605C101.184 389.801 101.062 390.298 100.697 390.335L100.652 390.338H97.0772C96.8594 390.338 96.6837 390.162 96.6837 389.945C96.6837 389.742 96.8351 389.575 97.0314 389.553L97.0772 389.55H99.2094L83.2567 380.128C83.141 380.06 83.0691 379.937 83.0635 379.805L83.0645 379.756L83.4818 374.798C83.4987 374.597 83.6641 374.444 83.8611 374.437L83.9071 374.439Z" fill="#141414"/>
<path d="M70.6953 374.451C70.89 374.398 71.0907 374.5 71.1647 374.683L71.1794 374.726L73.0848 381.633C73.0949 381.67 73.0995 381.708 73.0989 381.745L73.0937 381.802L71.8258 389.55H88.5378C88.7397 389.55 88.906 389.703 88.9288 389.898L88.9314 389.945C88.9314 390.147 88.7795 390.313 88.5836 390.336L88.5378 390.338H71.3629C71.1353 390.338 70.9586 390.147 70.9697 389.925L70.9745 389.881L72.3029 381.759L70.4205 374.936C70.3669 374.741 70.4691 374.54 70.6518 374.466L70.6953 374.451Z" fill="#141414"/>
<path d="M19.6609 358.987C19.7608 358.811 19.9751 358.742 20.1565 358.819L20.1978 358.839L33.9084 366.641C34.0974 366.748 34.1634 366.988 34.056 367.177C33.9562 367.353 33.7419 367.422 33.5604 367.345L33.5192 367.325L19.8085 359.524C19.6195 359.417 19.5534 359.176 19.6609 358.987Z" fill="#141414"/>
<path d="M18.2996 362.43C18.3994 362.254 18.6138 362.185 18.7951 362.261L18.8364 362.282L32.5511 370.086C32.7401 370.194 32.8061 370.435 32.6986 370.624C32.5987 370.8 32.3844 370.869 32.203 370.792L32.1617 370.772L18.4471 362.966C18.2581 362.859 18.1921 362.619 18.2996 362.43Z" fill="#141414"/>
<path d="M30.5398 368.978C30.7402 369.003 30.8866 369.174 30.885 369.371L30.882 369.417L29.7024 378.903L30.5619 380.232C30.6716 380.402 30.6344 380.624 30.4823 380.749L30.4451 380.776C30.2755 380.887 30.0532 380.849 29.9278 380.697L29.9006 380.66L28.9634 379.211C28.9232 379.149 28.9016 379.077 28.9004 379.003L28.9033 378.948L30.1004 369.32C30.1253 369.12 30.2967 368.973 30.4939 368.975L30.5398 368.978Z" fill="#141414"/>
<path d="M18.0103 368.348C18.1175 368.159 18.3578 368.092 18.5469 368.2C18.7225 368.3 18.7923 368.514 18.7155 368.695L18.6952 368.736L17.4277 370.973C17.4104 371.004 17.3893 371.032 17.3647 371.056L17.3255 371.091L12.8012 374.578L25.6782 389.551H35.6575L33.2408 385.819C33.131 385.65 33.1681 385.427 33.32 385.302L33.3571 385.274C33.5266 385.165 33.7488 385.202 33.8743 385.353L33.9015 385.391L36.7122 389.73C36.8738 389.98 36.7109 390.306 36.4256 390.336L36.3818 390.339H25.4975C25.3992 390.339 25.3051 390.301 25.2331 390.237L25.1991 390.201L11.9332 374.777C11.7964 374.618 11.8096 374.382 11.9553 374.239L11.9913 374.208L16.7821 370.515L18.0103 368.348Z" fill="#141414"/>
<path d="M50.4912 258.264C50.4912 260.233 52.1288 283.639 57.7344 302.171C61.4386 319.867 72.1812 373.615 72.1812 373.615H85.8408L80.9241 253.55L50.4912 258.264Z" fill="#007DB5"/>
<path d="M78.896 251.193C79.1128 251.16 79.3118 251.309 79.3452 251.52L79.3497 251.566L84.2664 371.63C84.2749 371.838 84.1198 372.015 83.9172 372.037L83.873 372.04H70.2135C70.0415 372.04 69.8914 371.929 69.8392 371.768L69.8119 371.645L66.3571 354.402L63.2826 339.103C63.1704 338.545 63.0584 337.988 62.9467 337.433C62.9038 337.22 63.0417 337.013 63.2549 336.97C63.468 336.927 63.6755 337.065 63.7184 337.278L67.129 354.247L70.5359 371.252H83.4625L78.5809 252.039L48.9223 256.645L48.9317 256.915L48.9513 257.333L48.9711 257.686L49.0233 258.492L49.0794 259.256L49.132 259.921L49.1915 260.632L49.275 261.578L49.3683 262.583L49.5143 264.073L49.6532 265.414L49.8299 267.036L49.9933 268.461L50.1248 269.562L50.2341 270.448L50.2899 270.891C50.3369 271.261 50.3847 271.63 50.4333 271.998C51.7849 282.243 53.6756 291.941 56.1519 300.134L57.2975 305.658L58.6891 312.456L59.5575 316.725C59.6007 316.939 59.4631 317.147 59.2501 317.19C59.0369 317.233 58.8291 317.096 58.786 316.883L56.5283 305.824L55.4321 300.53C55.4179 300.463 55.4038 300.395 55.3899 300.328C52.9585 292.29 51.0872 282.782 49.7365 272.73L49.5946 271.657L49.5372 271.212C49.4707 270.692 49.4059 270.173 49.3429 269.655L49.1579 268.095L49.0328 266.992L48.8464 265.271L48.6781 263.623L48.583 262.641L48.4475 261.162L48.3471 259.978L48.2542 258.77L48.2007 257.98L48.1673 257.405L48.1479 257.004L48.1355 256.658L48.1299 256.37C48.1299 256.348 48.1299 256.328 48.1299 256.307C48.1299 256.129 48.2505 255.974 48.4198 255.928L48.4631 255.918L78.896 251.193Z" fill="#141414"/>
<path d="M97.2684 205.316C100.418 206.986 110.44 211.518 111.649 211.518C112.857 211.518 130.15 205.808 131.063 204.064C131.976 202.319 132.921 197.673 134.504 197.208C136.086 196.744 135.193 200.831 135.193 200.831C136.129 200.524 150.919 196.669 150.852 196.747C151.245 198.866 143.243 204.871 142.408 205.087C138.294 209.703 112.68 224.068 111.566 224.068C110.452 224.068 93.147 219.342 92.0566 218.949C92.2731 217.338 95.7728 206.454 97.2684 205.316Z" fill="#FFB6B6"/>
<path d="M56.624 134.916C56.8413 134.91 57.0219 135.082 57.0274 135.3C57.0684 136.938 56.5434 138.126 55.2915 139.842L54.918 140.346C54.7879 140.52 54.5412 140.555 54.367 140.425C54.1929 140.295 54.1572 140.048 54.2873 139.874L54.5396 139.535C55.7817 137.859 56.2771 136.788 56.2403 135.319C56.2349 135.102 56.4067 134.921 56.624 134.916Z" fill="#141414"/>
<path d="M53.166 142.701C53.3794 142.744 53.5178 142.95 53.4754 143.165L53.3552 143.781L53.2203 144.497L53.0191 145.59L52.7378 147.16L52.4283 148.923L52.1642 150.45L51.8178 152.479L51.2391 155.926L50.7234 159.051L50.2146 162.183L50.0023 163.506L49.465 166.906L49.1579 168.891L48.8276 171.077L48.6351 172.39L48.4678 173.568L48.3607 174.351L48.2987 174.822L48.2444 175.25L48.1985 175.632L48.1612 175.968L48.1329 176.253C48.1092 176.513 48.0994 176.695 48.1051 176.791C48.1097 176.868 48.1215 176.956 48.1405 177.052L48.1668 177.174C48.1717 177.194 48.1769 177.216 48.1826 177.237L48.2193 177.373C48.2328 177.421 48.2473 177.469 48.2631 177.519L48.3141 177.675L48.3721 177.84L48.4375 178.017L48.51 178.204L48.6325 178.504L48.7233 178.719L48.9273 179.181L49.1 179.558L49.2897 179.961L49.4966 180.392L49.7209 180.85L50.036 181.484L50.2546 181.918L50.6057 182.606L52.1263 185.562L52.6022 186.499L52.7682 186.83L53.0426 187.39L53.1746 187.669L53.2864 187.914L53.3514 188.062L53.4098 188.199L53.4728 188.355C53.5473 188.543 53.6072 188.714 53.668 188.899C53.736 189.105 53.6236 189.328 53.417 189.396C53.2253 189.459 53.0198 189.367 52.9369 189.187L52.9201 189.145L52.8611 188.971L52.824 188.866L52.7276 188.614L52.6462 188.417L52.4843 188.055L52.2712 187.605L51.9925 187.04L51.3629 185.799L49.6584 182.482L49.3996 181.972L49.0047 181.18L48.7205 180.599L48.5257 180.191L48.29 179.686L48.1308 179.332L47.9865 179.002L47.857 178.692L47.7786 178.498L47.6731 178.222L47.6106 178.049L47.5542 177.884L47.504 177.727L47.4599 177.579C47.4531 177.554 47.4464 177.531 47.4401 177.507L47.405 177.369L47.3758 177.239L47.3524 177.117L47.3348 177C47.3324 176.981 47.3302 176.963 47.3282 176.945L47.3192 176.838C47.3151 176.771 47.318 176.664 47.3272 176.522L47.3459 176.283L47.374 175.992L47.411 175.652L47.4566 175.265L47.5105 174.832L47.5723 174.357L47.679 173.567L47.8459 172.381L48.0898 170.713L48.253 169.624L48.6116 167.28L49.0054 164.765L49.4968 161.688L49.9347 158.991L50.3778 156.3L50.8892 153.242L51.3119 150.756L51.6458 148.822L52.0166 146.715L52.294 145.175L52.4444 144.361L52.6236 143.417L52.7032 143.01C52.7456 142.797 52.9528 142.659 53.166 142.701Z" fill="#141414"/>
<path d="M55.4122 217.397C49.9681 219.76 37.6981 200.181 40.3671 197.066C44.0988 192.775 54.6092 189.47 58.2111 190.86C60.0297 193.353 64.6708 213.4 55.4122 217.397Z" fill="#141414"/>
<path d="M38.4949 195.233C37.9712 195.845 37.9174 196.961 38.2428 198.399L38.3005 198.641C38.3311 198.765 38.3643 198.889 38.4 199.016L38.4749 199.273L38.5565 199.535L38.6447 199.802L38.7393 200.074C38.7557 200.12 38.7723 200.167 38.7891 200.213L38.8934 200.492C38.9113 200.539 38.9294 200.586 38.9479 200.633L39.0615 200.919L39.1812 201.209C39.2017 201.258 39.2224 201.306 39.2434 201.356L39.3722 201.651L39.5069 201.951C39.5298 202.001 39.553 202.051 39.5764 202.102L39.7198 202.408L39.8688 202.715L40.0234 203.026L40.1835 203.34L40.3489 203.657L40.5197 203.976L40.6956 204.298L40.8767 204.622L41.0628 204.947L41.2538 205.274L41.4495 205.603L41.6501 205.933L41.8553 206.265L42.0649 206.598L42.2791 206.931L42.4976 207.265L42.7204 207.599L42.9474 207.934L43.1893 208.283L43.4318 208.628L43.6747 208.967C43.7153 209.023 43.7558 209.079 43.7963 209.134L44.0398 209.464C44.0804 209.518 44.121 209.572 44.1616 209.627L44.4054 209.947C44.4461 210 44.4867 210.053 44.5273 210.105L44.7712 210.416L45.0151 210.72C45.0557 210.771 45.0964 210.82 45.1369 210.871L45.3806 211.165C45.4212 211.214 45.4618 211.262 45.5023 211.31L45.7456 211.594L45.9885 211.872C46.0289 211.918 46.0694 211.963 46.1097 212.008L46.3519 212.275C46.3922 212.319 46.4325 212.363 46.4727 212.406L46.714 212.662L46.9544 212.911L47.1941 213.152C47.2738 213.231 47.3534 213.309 47.4329 213.385L47.6706 213.612C47.7101 213.648 47.7497 213.684 47.7891 213.721L48.0253 213.935C48.143 214.04 48.2604 214.143 48.3772 214.241L48.6101 214.435C48.7262 214.53 48.8419 214.621 48.9568 214.71L49.1861 214.883C51.0134 216.231 52.6831 216.752 53.9939 216.184C56.9106 214.925 58.6612 212.125 59.4003 208.236L59.4656 207.873C59.653 206.778 59.7632 205.6 59.7995 204.348L59.8088 203.928L59.8128 203.503L59.8112 203.073C59.8084 202.784 59.802 202.492 59.792 202.196L59.7755 201.777L59.7551 201.377C59.7438 201.177 59.7307 200.976 59.716 200.775L59.6844 200.37L59.6487 199.964L59.6089 199.557L59.5652 199.15L59.5177 198.743L59.4666 198.338L59.412 197.933L59.3542 197.53L59.2931 197.129L59.2291 196.731L59.1623 196.337L59.0926 195.946L59.0205 195.56L58.9077 194.99L58.8299 194.618L58.7499 194.252L58.6681 193.892L58.5845 193.539C58.5705 193.482 58.5563 193.424 58.5422 193.367L58.4562 193.026L58.3689 192.694L58.2805 192.372L58.191 192.059L58.1005 191.757L58.0093 191.465C57.994 191.418 57.9788 191.37 57.9634 191.323L57.8714 191.048L57.7789 190.786C57.7635 190.744 57.7481 190.702 57.7326 190.659L57.6398 190.416C57.6089 190.337 57.5779 190.26 57.547 190.186L57.4544 189.97C57.2848 189.586 57.1165 189.276 56.954 189.054C56.9094 188.993 56.8482 188.945 56.7777 188.918C55.0517 188.252 52.0208 188.571 48.8526 189.5L48.4198 189.63C47.842 189.81 47.2613 190.008 46.6849 190.224L46.2535 190.388C43.0972 191.621 40.1219 193.362 38.4949 195.233ZM56.3829 189.613L56.3988 189.636C56.5421 189.859 56.6912 190.161 56.8424 190.528L56.9332 190.756L57.0245 190.999C57.0397 191.041 57.055 191.083 57.0702 191.126L57.1615 191.39L57.2527 191.668C57.2679 191.715 57.2831 191.763 57.2983 191.812L57.3888 192.108C57.404 192.159 57.4189 192.21 57.434 192.262L57.5237 192.576L57.6125 192.902L57.7003 193.238L57.7868 193.583C57.8012 193.642 57.8154 193.701 57.8296 193.76L57.9139 194.119L57.9965 194.487L58.0774 194.862C58.0907 194.926 58.1038 194.988 58.117 195.053L58.1946 195.438L58.2699 195.83C58.2823 195.895 58.2945 195.961 58.3067 196.027L58.3782 196.427L58.4469 196.831L58.5126 197.238L58.5752 197.65L58.6345 198.063L58.6903 198.479C58.7084 198.617 58.7256 198.756 58.7424 198.896L58.7906 199.313L58.8348 199.731L58.8747 200.149L58.9103 200.565C58.9158 200.635 58.9212 200.704 58.9263 200.774L58.9548 201.187C58.9592 201.256 58.9634 201.324 58.9674 201.392L58.9885 201.802C58.9917 201.87 58.9946 201.938 58.9972 202.006C59.0612 203.624 59.0169 205.134 58.8602 206.52L58.8145 206.895C58.2585 211.171 56.5915 214.204 53.6812 215.461C52.8385 215.827 51.7254 215.562 50.4596 214.788L50.2529 214.658C50.0104 214.501 49.7626 214.326 49.5103 214.133L49.2931 213.964C49.2567 213.935 49.2202 213.906 49.1836 213.876L48.9633 213.695C48.9265 213.664 48.8894 213.632 48.8524 213.601L48.6293 213.407L48.4044 213.205L48.1779 212.996C48.14 212.96 48.1021 212.925 48.0641 212.888L47.8354 212.667C47.7589 212.592 47.6822 212.515 47.6054 212.438L47.374 212.201C47.3354 212.161 47.2967 212.121 47.258 212.08L47.0251 211.833L46.7912 211.578C46.7521 211.535 46.713 211.492 46.6739 211.448L46.4388 211.182L46.203 210.91L45.9667 210.631L45.73 210.346C45.6904 210.297 45.6509 210.248 45.6114 210.2L45.3742 209.904L45.1368 209.601L44.8992 209.293L44.6618 208.979L44.4246 208.658L44.1875 208.331C44.1481 208.276 44.1086 208.221 44.0692 208.166L43.8328 207.83L43.597 207.489L43.3772 207.165L43.1613 206.84L42.9496 206.516L42.7421 206.192L42.5389 205.869L42.34 205.547L42.1457 205.226C42.1136 205.173 42.0819 205.119 42.0502 205.066L41.8627 204.746L41.6798 204.428L41.5018 204.113L41.3285 203.799L41.1602 203.488L40.997 203.18C40.9702 203.128 40.9436 203.077 40.9173 203.026L40.7617 202.722L40.6114 202.42L40.4664 202.122L40.3269 201.827L40.1928 201.536C40.1709 201.488 40.1492 201.44 40.1278 201.392L40.0022 201.107L39.8824 200.827L39.7134 200.415L39.6082 200.146L39.5089 199.883L39.4159 199.624L39.329 199.371C39.3151 199.329 39.3013 199.288 39.288 199.247L39.2105 199.003C39.1734 198.883 39.1387 198.765 39.1064 198.649L39.0452 198.421C39.0163 198.309 38.9898 198.198 38.9658 198.091L38.9214 197.88C38.723 196.878 38.7648 196.129 39.0908 195.748C40.4258 194.213 42.7584 192.758 45.3315 191.625L45.7291 191.453C46.195 191.255 46.6674 191.069 47.1419 190.894L47.549 190.747C47.617 190.723 47.6848 190.7 47.7528 190.676L48.1603 190.539L48.5673 190.408C48.6351 190.387 48.7029 190.366 48.7705 190.344L49.1757 190.224C52.0053 189.4 54.6858 189.085 56.2711 189.576L56.3829 189.613Z" fill="#141414"/>
<path d="M148.92 195.433C149.011 195.236 149.245 195.149 149.443 195.24C149.64 195.331 149.726 195.565 149.635 195.762C148.46 198.317 145.365 201.297 141.066 203.832L140.88 203.94L140.783 204.039C139.755 205.062 137.825 206.533 135.408 208.208L134.737 208.67C134.624 208.748 134.509 208.826 134.393 208.905L133.69 209.38L132.968 209.862L132.226 210.351C132.102 210.433 131.977 210.514 131.851 210.597L131.087 211.093C130.959 211.176 130.83 211.259 130.701 211.343L129.918 211.844L129.127 212.347L128.326 212.85L127.52 213.353L126.709 213.855L125.896 214.354L125.082 214.851L124.269 215.342L123.458 215.828L122.653 216.306L121.855 216.776C121.722 216.854 121.591 216.932 121.459 217.008L120.675 217.464L119.901 217.91L119.142 218.344L118.397 218.766L117.669 219.172L116.961 219.564L116.273 219.94L115.607 220.298C115.499 220.357 115.391 220.414 115.284 220.471L114.657 220.801C112.302 222.028 110.551 222.814 109.878 222.879L109.795 222.882L109.695 222.88L109.58 222.874L109.45 222.863L109.305 222.847L109.147 222.827L108.974 222.803L108.69 222.76L108.377 222.707L107.913 222.621L107.401 222.521L106.842 222.406L106.237 222.277L105.421 222.095L104.722 221.935C104.511 221.886 104.379 221.675 104.428 221.462C104.477 221.251 104.689 221.119 104.9 221.168L105.565 221.32L106.344 221.494L107.196 221.676L107.834 221.804L108.291 221.89L108.602 221.947L108.884 221.993L109.215 222.043L109.427 222.069L109.551 222.082L109.659 222.091L109.754 222.094C109.768 222.095 109.782 222.095 109.795 222.095C109.821 222.095 109.853 222.092 109.888 222.086L109.967 222.07L110.058 222.047L110.161 222.016L110.277 221.976L110.404 221.931L110.617 221.848L110.773 221.785L110.939 221.714L111.117 221.636L111.305 221.552L111.712 221.363L112.044 221.205L112.396 221.034L112.898 220.785L113.436 220.512L114.153 220.141L115.076 219.653L115.893 219.213L116.75 218.746L117.643 218.252L118.382 217.839L118.947 217.52L119.912 216.972L121.1 216.288L122.316 215.579L123.346 214.971L124.466 214.304L125.69 213.566L126.412 213.125L127.358 212.545L128.055 212.113L128.74 211.685L129.412 211.261L130.504 210.566L131.35 210.02L131.764 209.751L132.371 209.352L132.964 208.959L133.728 208.446L134.283 208.069L134.819 207.7L135.339 207.338L135.839 206.985L136.321 206.64L136.783 206.303L137.225 205.976L137.647 205.658L137.916 205.452L138.302 205.151L138.666 204.86L138.896 204.672L139.115 204.489L139.325 204.311L139.524 204.138L139.712 203.971L139.889 203.808L140.055 203.651L140.21 203.5L140.354 203.353C140.379 203.327 140.408 203.305 140.44 203.286C144.731 200.797 147.802 197.864 148.92 195.433Z" fill="#141414"/>
<path d="M90.7123 217.691C90.7894 217.487 91.0167 217.385 91.2199 217.463L91.4309 217.539L91.5936 217.596L92.0734 217.755L92.4092 217.861L92.9095 218.015L93.6143 218.224L94.3995 218.451L95.439 218.744L96.3756 219.002C96.5859 219.059 96.7093 219.276 96.6523 219.485C96.5953 219.695 96.3784 219.819 96.169 219.762L95.2221 219.501L94.3406 219.254L93.3788 218.976L92.5332 218.724L92.0402 218.571L91.5099 218.399L91.326 218.337L91.0817 218.251L90.9405 218.198C90.7373 218.122 90.6351 217.894 90.7123 217.691Z" fill="#141414"/>
<path d="M132.819 195.256C133.418 195.079 133.878 195.351 134.094 195.915C134.241 196.297 134.284 196.814 134.255 197.445C134.238 197.818 134.194 198.213 134.133 198.614L134.112 198.752L134.068 199.011L134.025 199.237L134.003 199.34C133.956 199.553 133.747 199.687 133.535 199.641C133.322 199.594 133.188 199.384 133.234 199.171L133.271 198.986L133.314 198.751L133.355 198.495C133.412 198.12 133.453 197.75 133.468 197.407C133.494 196.877 133.457 196.454 133.359 196.197C133.281 195.995 133.22 195.959 133.04 196.011C132.705 196.109 132.373 196.489 132.012 197.172L131.918 197.357L131.822 197.556L131.724 197.769L131.625 197.996L131.525 198.237L131.422 198.494L131.318 198.764L131.157 199.196L130.994 199.654L130.436 201.246L130.333 201.526L130.235 201.781C130.172 201.943 130.111 202.091 130.052 202.224L129.965 202.417C129.922 202.508 129.88 202.593 129.837 202.673C129.775 202.791 129.663 202.919 129.502 203.057L129.399 203.141C129.382 203.155 129.363 203.17 129.344 203.184L129.225 203.272C129.203 203.287 129.182 203.302 129.16 203.317L129.024 203.409L128.875 203.503L128.716 203.599L128.545 203.698L128.364 203.799L128.171 203.903L127.967 204.01L127.752 204.118L127.527 204.228L127.291 204.342L126.917 204.516L126.654 204.635L126.241 204.818L125.654 205.071L125.186 205.266L124.697 205.467L124.008 205.742L123.28 206.027L122.71 206.246L121.916 206.547L120.871 206.934C120.666 207.009 120.44 206.905 120.365 206.7C120.29 206.496 120.395 206.27 120.599 206.195L121.37 205.909L122.473 205.492L123.34 205.155L123.673 205.024L124.47 204.703L125.07 204.456L125.634 204.217L126.161 203.988L126.532 203.823L126.767 203.715L127.101 203.56L127.31 203.459L127.606 203.314L127.878 203.175L128.045 203.086L128.202 203.001L128.347 202.918L128.481 202.838C128.503 202.826 128.524 202.813 128.544 202.8L128.661 202.726L128.766 202.655C128.799 202.632 128.83 202.609 128.859 202.587L128.94 202.523L129.01 202.463C129.072 202.404 129.117 202.351 129.141 202.304C129.192 202.21 129.242 202.106 129.296 201.988L129.377 201.802L129.462 201.594L129.552 201.365L129.646 201.114L129.779 200.745L130.305 199.24L130.419 198.921L130.53 198.616L130.641 198.326C130.659 198.28 130.676 198.233 130.694 198.187L130.802 197.919C130.819 197.875 130.837 197.832 130.854 197.79L130.96 197.542C130.976 197.502 130.994 197.463 131.011 197.423L131.115 197.196C131.149 197.122 131.184 197.051 131.218 196.982L131.32 196.781C131.782 195.906 132.243 195.425 132.819 195.256Z" fill="#141414"/>
<path d="M95.3468 203.556C95.4487 203.365 95.6861 203.292 95.8787 203.393L96.1787 203.551L96.5012 203.716L96.8424 203.889L97.3892 204.161L97.9716 204.446L98.5857 204.741L99.226 205.045L99.8888 205.356L100.568 205.671L101.491 206.092L102.669 206.622L103.803 207.122L104.908 207.601L105.517 207.862L106.393 208.229L107.078 208.51L107.591 208.716L107.953 208.859L108.403 209.031L108.809 209.182L109.085 209.28L109.333 209.364L109.481 209.411L109.617 209.453L109.738 209.487L109.845 209.514C109.862 209.518 109.878 209.521 109.894 209.525L109.978 209.54C110.003 209.544 110.025 209.547 110.046 209.548L110.315 209.5C110.823 209.404 111.325 209.279 111.819 209.125L112.114 209.03C112.32 208.961 112.544 209.072 112.613 209.278C112.682 209.484 112.571 209.708 112.364 209.777C111.729 209.99 111.08 210.158 110.422 210.282L110.138 210.331L110.074 210.337C110.043 210.337 110.005 210.334 109.962 210.328L109.867 210.312L109.758 210.288C109.739 210.285 109.719 210.279 109.698 210.274L109.567 210.24L109.423 210.199L109.265 210.151L109.006 210.066L108.718 209.968L108.404 209.856L107.95 209.687L107.585 209.548L107.066 209.344L106.515 209.124L105.639 208.764L105.336 208.637L104.236 208.169L103.097 207.675L102.223 207.288L101.716 207.062L101.21 206.833L100.456 206.489L99.7149 206.146L98.9914 205.808L98.5212 205.586L98.0641 205.368L97.6211 205.153L97.1929 204.944L96.5853 204.642L96.204 204.45L95.845 204.265C95.7291 204.205 95.6179 204.146 95.5104 204.089C95.3178 203.987 95.2449 203.749 95.3468 203.556Z" fill="#141414"/>
<path d="M66.5282 193.971C84.6714 193.971 86.0648 229.99 81.0419 257.909C76.1567 259.878 48.5266 260.7 43.921 256.231C42.2479 250.093 36.2921 193.974 66.5282 193.971Z" fill="#141414"/>
<path d="M64.9532 192.003C76.5601 192.003 82.3352 206.28 82.3761 228.904C82.3761 229.12 82.2006 229.297 81.9831 229.298C81.7657 229.298 81.5891 229.122 81.5888 228.904C81.5487 206.68 75.9307 192.79 64.9532 192.79C52.8553 192.79 45.719 201.855 42.705 217.476C42.6638 217.69 42.4574 217.829 42.2439 217.788C42.0304 217.747 41.8908 217.541 41.932 217.327C45.009 201.38 52.3909 192.003 64.9532 192.003Z" fill="#141414"/>
<path d="M40.7511 234.26C40.9685 234.262 41.1433 234.439 41.1415 234.656C41.1388 234.997 41.1376 235.339 41.1379 235.682L41.1412 236.455L41.1494 237.235L41.1576 237.755L41.1738 238.534L41.1944 239.309L41.2107 239.824L41.2387 240.594L41.2706 241.356L41.3064 242.113L41.3324 242.613L41.36 243.108L41.3892 243.6L41.4198 244.086L41.4684 244.807L41.5202 245.514L41.5748 246.209L41.6127 246.663L41.6921 247.55L41.7544 248.196L41.8189 248.822L41.9079 249.627L41.9769 250.207L42.0475 250.763L42.0954 251.121L42.1682 251.637L42.2174 251.966L42.2921 252.439L42.3677 252.883L42.4184 253.163L42.4695 253.431L42.5206 253.684L42.572 253.924L42.6234 254.15C42.632 254.186 42.6406 254.222 42.6492 254.256L42.6957 254.442L42.7428 254.483C42.961 254.671 43.1973 254.837 43.448 254.977L43.6 255.059C43.7936 255.158 43.8703 255.395 43.7713 255.589C43.6723 255.783 43.4352 255.859 43.2416 255.76C42.8182 255.543 42.4268 255.269 42.0784 254.946C42.0245 254.896 41.9858 254.832 41.9665 254.761L41.912 254.554C41.9029 254.518 41.8938 254.481 41.8848 254.444L41.8304 254.213L41.7761 253.967L41.722 253.707L41.6682 253.431L41.6146 253.141L41.5614 252.837L41.4823 252.357L41.4044 251.848L41.3277 251.312L41.2526 250.749L41.2033 250.36L41.1549 249.96L41.084 249.342L41.0151 248.702L40.9484 248.041L40.8844 247.361L40.8229 246.663L40.7644 245.949L40.7088 245.22L40.6399 244.225L40.5924 243.465L40.5484 242.695L40.5084 241.915L40.4724 241.127L40.4407 240.331L40.4227 239.819C40.4142 239.563 40.4064 239.306 40.3993 239.048L40.3862 238.532L40.3749 238.015C40.3529 236.893 40.3453 235.767 40.3543 234.651C40.3561 234.433 40.5338 234.258 40.7511 234.26Z" fill="#141414"/>
<path d="M81.4616 241.14C81.6782 241.158 81.8388 241.349 81.8203 241.565C81.3952 246.543 80.7261 251.561 79.8472 256.405C79.8229 256.538 79.7314 256.651 79.6052 256.7C79.3742 256.792 79.0976 256.881 78.7794 256.966L78.5331 257.031C78.4485 257.052 78.3613 257.073 78.2717 257.094L77.9954 257.154C77.9482 257.165 77.9004 257.175 77.8519 257.185L77.5543 257.245C77.5036 257.254 77.4522 257.264 77.4004 257.274L77.0824 257.332L76.7511 257.388L76.4072 257.442C76.3488 257.452 76.2899 257.461 76.2305 257.469L75.8682 257.523L75.4941 257.574L75.1087 257.624L74.7123 257.672L74.3054 257.719L73.8884 257.764L73.4616 257.808L73.0254 257.85L72.5804 257.891L71.8968 257.948L71.4312 257.984L70.7186 258.035L69.9904 258.083L69.248 258.126L68.7459 258.152L68.2383 258.176L67.468 258.209L66.6878 258.237L65.8993 258.26L65.1036 258.28L64.3023 258.294L63.4967 258.303L62.9579 258.307L62.4181 258.308L61.6076 258.306L61.0673 258.301L60.2578 258.29L59.7195 258.28L58.9147 258.259L58.1148 258.234C58.0261 258.231 57.9377 258.227 57.8493 258.224C57.6321 258.216 57.4627 258.033 57.471 257.815C57.4793 257.598 57.6622 257.429 57.8794 257.438C58.3158 257.453 58.7553 257.468 59.1967 257.48L59.7275 257.492L60.2597 257.502L60.793 257.511C61.6827 257.522 62.5753 257.523 63.4624 257.515L63.994 257.51L64.51 257.502L65.2801 257.487L65.7904 257.475L66.5502 257.453L67.0525 257.436L67.7984 257.406L68.2904 257.384L68.7775 257.361L69.2593 257.336L69.9718 257.295L70.6705 257.25L71.1279 257.217L71.801 257.167L72.2401 257.13L72.884 257.073L73.3026 257.034L73.7123 256.993L74.3093 256.928C74.3745 256.921 74.4391 256.913 74.5034 256.906L74.8842 256.86L75.4357 256.79L75.7898 256.741L76.1325 256.691C76.1886 256.682 76.2443 256.674 76.2995 256.666L76.6245 256.614L76.9372 256.561L77.2373 256.507L77.5245 256.451L77.7982 256.394L78.0582 256.337C78.1003 256.327 78.1419 256.318 78.1829 256.308L78.4215 256.249C78.46 256.239 78.498 256.229 78.5353 256.219L78.7517 256.158C78.8214 256.138 78.8884 256.118 78.9529 256.097L79.1119 256.043L79.2247 255.412C79.9746 251.142 80.5604 246.747 80.9587 242.373L81.0358 241.499C81.053 241.297 81.2186 241.145 81.4156 241.138L81.4616 241.14Z" fill="#141414"/>
<path d="M69.5756 201.784C71.2722 195.65 96.2534 198.442 97.0918 202.769C98.2098 208.77 93.8828 219.8 90.2539 221.891C86.9039 221.753 66.6862 212.227 69.5756 201.784Z" fill="#141414"/>
<path d="M93.7463 199.396C93.8576 199.209 94.0997 199.149 94.2857 199.261C95.2167 199.817 95.785 200.435 95.9196 201.121C97.0255 207.059 92.8312 218.387 88.8915 220.657C88.8271 220.693 88.7534 220.712 88.6791 220.709C88.6412 220.707 88.5967 220.702 88.5461 220.694L88.4365 220.673L88.3111 220.644L88.1703 220.608L88.0149 220.563L87.8454 220.512L87.6624 220.452L87.4667 220.386L87.1505 220.274L86.8088 220.149L86.444 220.011L85.925 219.807L85.5142 219.641L84.9415 219.406L84.3451 219.155L83.7297 218.891L83.1004 218.615L82.3021 218.259L81.8204 218.04L81.0199 217.671L80.3874 217.374L79.7671 217.077L79.1641 216.784L78.7261 216.567L78.0299 216.214L77.7649 216.077C77.7215 216.055 77.6784 216.031 77.6356 216.009C77.4432 215.908 77.369 215.671 77.4699 215.478C77.571 215.285 77.8089 215.211 78.0014 215.312L78.4375 215.538C78.5124 215.576 78.5882 215.615 78.6649 215.654L79.1362 215.89L79.627 216.132L80.1338 216.378L80.6536 216.627C80.7412 216.668 80.8292 216.71 80.9174 216.751L81.4505 217.001L81.9211 217.218L82.699 217.572L83.6173 217.98L84.0684 218.179L84.6568 218.432L85.3646 218.731L85.9027 218.953L86.4105 219.158L86.8832 219.343L87.3159 219.506L87.6113 219.613L87.7931 219.677L87.9622 219.733L88.1908 219.805L88.3254 219.844L88.4451 219.876C88.4638 219.88 88.4819 219.884 88.4992 219.888L88.6056 219.909C90.2809 218.865 92.0378 215.963 93.3332 212.597L93.4958 212.165L93.6538 211.729C94.9176 208.148 95.6308 204.192 95.1765 201.439L95.1466 201.269C95.0643 200.852 94.64 200.389 93.8819 199.937C93.6959 199.825 93.6342 199.583 93.7463 199.396Z" fill="#141414"/>
<path d="M67.6213 200.103C68.5086 196.9 75.2943 195.708 83.0001 196.439L83.5455 196.494C84.7302 196.619 85.9337 196.79 87.1382 197.005C87.3522 197.044 87.4947 197.248 87.4565 197.462C87.4183 197.676 87.2138 197.818 86.9998 197.781C86.3807 197.67 85.7613 197.572 85.1445 197.486L84.6164 197.416C84.0012 197.336 83.3893 197.27 82.7834 197.216L82.2656 197.172C75.2116 196.615 69.098 197.72 68.38 200.313C68.1614 201.103 68.0767 201.925 68.1298 202.743C68.1438 202.96 67.9794 203.147 67.7624 203.161C67.5455 203.176 67.3582 203.011 67.3441 202.793C67.2854 201.887 67.3791 200.978 67.6213 200.103Z" fill="#141414"/>
<path d="M67.866 198.039C67.866 199.641 57.71 199.846 57.71 198.039V183.626H67.866V198.039Z" fill="#FFB6B6"/>
<path d="M66.2923 191.436C66.4942 191.436 66.6606 191.588 66.6834 191.783L66.686 191.829V196.465C66.686 196.681 66.5097 196.858 66.2923 196.858C66.0903 196.858 65.9239 196.706 65.9011 196.51L65.8984 196.465V191.829C65.8984 191.612 66.0747 191.436 66.2923 191.436Z" fill="#141414"/>
<path d="M66.2939 181.658C66.4958 181.658 66.6621 181.811 66.6849 182.006L66.6876 182.053V188.522C66.6876 188.74 66.5113 188.916 66.2939 188.916C66.092 188.916 65.9256 188.764 65.9029 188.568L65.9002 188.522V182.445H56.5315V196.465C56.5315 196.623 56.9145 196.848 57.6321 197.027L57.8269 197.072L58.0366 197.115L58.1471 197.136C59.2285 197.329 60.6823 197.395 62.0974 197.324C62.3146 197.313 62.4995 197.48 62.5105 197.697C62.5214 197.914 62.3543 198.099 62.1372 198.11L61.8211 198.124C61.7163 198.129 61.6122 198.131 61.5087 198.134L61.2003 198.141C61.0983 198.143 60.9969 198.144 60.8964 198.144L60.5974 198.143C60.548 198.142 60.4988 198.141 60.4498 198.14L60.1587 198.133L59.8734 198.122L59.5942 198.107L59.3217 198.088C59.2769 198.085 59.2323 198.081 59.188 198.077L58.926 198.052L58.6715 198.023C58.6297 198.018 58.5883 198.013 58.5472 198.007L58.3047 197.973C58.2253 197.96 58.1473 197.947 58.0708 197.933L57.8456 197.89C57.6251 197.845 57.4183 197.794 57.2272 197.737L57.0413 197.677C56.2591 197.411 55.7805 197.028 55.7461 196.524L55.7441 196.465V182.053C55.7441 181.85 55.8961 181.683 56.0919 181.661L56.1378 181.658H66.2939Z" fill="#141414"/>
<path d="M65.1432 186.769C70.8784 186.769 75.5276 180.653 75.5276 173.109C75.5276 165.565 70.8784 159.449 65.1432 159.449C59.408 159.449 54.7588 165.565 54.7588 173.109C54.7588 180.653 59.408 186.769 65.1432 186.769Z" fill="#FFB6B6"/>
<path d="M63.9617 157.48C69.8819 157.48 74.6436 163.666 74.7382 171.299L74.7397 171.53C74.7601 174.051 74.2295 176.546 73.1849 178.84C73.0948 179.038 72.8613 179.125 72.6635 179.036C72.4656 178.945 72.3783 178.711 72.4684 178.514C73.4299 176.402 73.9352 174.113 73.9525 171.792L73.9524 171.534C73.9524 164.187 69.4526 158.267 63.9617 158.267C58.47 158.267 53.9669 164.188 53.9669 171.534C53.9669 178.88 58.47 184.8 63.9617 184.8C66.3558 184.8 68.6273 183.674 70.4221 181.649C70.5663 181.486 70.8151 181.471 70.9778 181.615C71.1404 181.759 71.1554 182.008 71.0112 182.171C69.0734 184.358 66.5926 185.588 63.9617 185.588C57.981 185.588 53.1797 179.275 53.1797 171.534C53.1797 163.792 57.981 157.48 63.9617 157.48Z" fill="#141414"/>
<path d="M52.959 174.598C52.959 163.719 56.5687 153.303 60.2061 153.303C63.8433 153.303 61.8397 158.465 61.8397 158.465C63.3513 155.441 68.0239 150.767 70.067 150.767C72.11 150.767 72.606 153.917 70.5117 157.13C72.35 155.081 74.9278 153.849 77.6761 153.705C80.038 153.705 80.345 156.508 80.345 159.268C80.345 164.148 70.1102 171.637 68.9568 172.929C68.8663 174.531 67.5318 187.569 64.2843 187.569C61.0366 187.569 52.959 186.77 52.959 174.598Z" fill="#ECC953"/>
<path d="M65.848 182.166C65.9154 181.959 66.1376 181.846 66.3442 181.913C66.5509 181.981 66.6639 182.203 66.5965 182.41L66.5467 182.56L66.4459 182.855L66.3435 183.138C65.5692 185.221 64.6537 186.387 63.4983 186.387C60.3901 186.387 57.6712 185.681 55.4646 183.645C55.3048 183.497 55.2948 183.247 55.4422 183.088C55.5896 182.928 55.8386 182.918 55.9984 183.065C58.0293 184.939 60.5691 185.599 63.4983 185.599C64.1156 185.599 64.7565 184.865 65.3512 183.494L65.4527 183.253L65.5531 183L65.6526 182.733C65.6691 182.688 65.6855 182.643 65.702 182.596L65.7996 182.312C65.8158 182.264 65.8319 182.215 65.848 182.166Z" fill="#141414"/>
<path d="M78.3849 160.223C78.4874 160.031 78.7258 159.959 78.9176 160.061C79.1094 160.164 79.1817 160.403 79.0793 160.594C78.7295 161.249 78.2782 161.934 77.7322 162.649C76.8302 163.829 75.6891 165.068 74.3278 166.381L73.9674 166.726L73.4745 167.19L73.0913 167.544L72.7034 167.896L72.5035 168.074L71.8602 168.642L71.2492 169.171L70.5422 169.776L69.89 170.333C69.7245 170.474 69.476 170.454 69.3351 170.288C69.1942 170.122 69.2142 169.874 69.3797 169.733L70.7311 168.577L71.338 168.052L71.9764 167.49L72.3681 167.138L72.7483 166.79L73.1302 166.434L73.5271 166.059C74.9752 164.679 76.1768 163.387 77.1066 162.17C77.6283 161.488 78.0567 160.837 78.3849 160.223Z" fill="#141414"/>
<path d="M76.8891 151.735C78.8069 151.735 79.6621 153.203 79.8852 155.863L79.9066 156.153C79.9099 156.202 79.9128 156.251 79.9156 156.301C79.9278 156.519 79.7617 156.705 79.5446 156.717C79.3276 156.729 79.1417 156.562 79.1295 156.346C79.1241 156.248 79.1179 156.153 79.111 156.06L79.0882 155.787C79.084 155.742 79.0796 155.698 79.075 155.654L79.0454 155.397C78.8005 153.468 78.1475 152.523 76.899 152.523C76.0224 152.545 75.1547 152.707 74.3285 153C74.1237 153.073 73.8985 152.966 73.8256 152.762C73.7528 152.557 73.8597 152.332 74.0645 152.259C74.9692 151.936 75.9192 151.76 76.8891 151.735Z" fill="#141414"/>
<path d="M69.2808 148.79C71.8466 148.79 72.2093 152.458 70.0553 155.762C69.9366 155.944 69.6927 155.996 69.5105 155.877C69.3285 155.758 69.277 155.514 69.3958 155.332C69.761 154.772 70.0441 154.211 70.2509 153.673L70.3295 153.458C71.0752 151.326 70.6091 149.578 69.2808 149.578C68.689 149.578 67.7751 150.079 66.7645 150.86L66.5297 151.046L66.2921 151.24C66.1726 151.341 66.0524 151.443 65.9316 151.549L65.6897 151.765C65.4473 151.985 65.2039 152.215 64.9624 152.453L64.7215 152.694L64.4824 152.941C64.4427 152.982 64.4031 153.023 64.3637 153.065L64.1285 153.318C63.9338 153.53 63.7425 153.745 63.5564 153.963L63.3356 154.224C62.5357 155.186 61.8468 156.175 61.4056 157.058C61.1816 157.506 60.5055 157.207 60.6865 156.74L60.7182 156.654L60.766 156.514C60.8276 156.33 60.8895 156.125 60.9473 155.905C61.0935 155.348 61.1878 154.795 61.2059 154.287C61.256 152.872 60.7492 152.114 59.4199 152.114C56.2589 152.114 52.8521 161.528 52.5821 171.706C52.5763 171.924 52.3955 172.096 52.1781 172.089C51.9608 172.084 51.7893 171.903 51.7951 171.686C52.0763 161.084 55.6075 151.326 59.4199 151.326C61.2698 151.326 62.0569 152.503 61.9926 154.315C61.9904 154.378 61.987 154.443 61.9828 154.507L61.9683 154.684L61.9888 154.657C62.193 154.381 62.4088 154.105 62.6338 153.83L62.8618 153.556C62.9772 153.419 63.0946 153.284 63.2138 153.148L63.4545 152.88C63.5354 152.791 63.617 152.703 63.6991 152.616L63.9473 152.355C64.0306 152.269 64.1143 152.183 64.1984 152.099L64.4518 151.847L64.7069 151.601C66.3698 150.025 68.1063 148.847 69.2015 148.792L69.2808 148.79Z" fill="#141414"/>
<path d="M69.4297 177.916C71.2536 177.916 72.7323 176.438 72.7323 174.613C72.7323 172.788 71.2536 171.309 69.4297 171.309C67.6056 171.309 66.127 172.788 66.127 174.613C66.127 176.438 67.6056 177.916 69.4297 177.916Z" fill="white"/>
<path d="M66.7507 170.641C67.8696 169.971 69.2592 169.941 70.4062 170.561C70.5974 170.665 70.6684 170.904 70.565 171.095C70.4615 171.287 70.2226 171.358 70.0314 171.254C69.1289 170.765 68.0356 170.79 67.1552 171.317C66.2748 171.844 65.738 172.797 65.7425 173.846C65.7372 173.949 65.7372 174.053 65.7425 174.157C65.7536 174.373 65.5866 174.558 65.3695 174.57C65.1524 174.581 64.9673 174.414 64.9562 174.197C64.9496 174.066 64.9496 173.936 64.9557 173.827C64.9494 172.523 65.6317 171.312 66.7507 170.641Z" fill="#141414"/>
<path d="M66.0781 175.947C66.2285 175.79 66.4777 175.785 66.6347 175.935C67.1745 176.453 67.8935 176.741 68.6421 176.74C68.9207 176.74 69.198 176.699 69.4648 176.618C69.6729 176.556 69.8926 176.673 69.9554 176.882C70.0182 177.089 69.9004 177.309 69.6922 177.373C69.3514 177.476 68.9973 177.527 68.6423 177.527C67.6914 177.529 66.7768 177.162 66.0901 176.504C65.9331 176.354 65.9277 176.104 66.0781 175.947Z" fill="#141414"/>
<path opacity="0.15" d="M259.185 42.4331H237.439C237.136 42.4331 236.947 42.7613 237.098 43.0239L247.971 61.8584C248.123 62.1208 248.501 62.1208 248.653 61.8584L259.526 43.0239C259.677 42.7613 259.488 42.4331 259.185 42.4331ZM258.502 43.2207L248.312 60.8739L238.121 43.2207H258.502Z" fill="#696969"/>
<path opacity="0.15" d="M18.2777 70.5952L10.4944 65.5794C10.3116 65.4616 10.068 65.5143 9.95027 65.6972L0.062771 81.0506C-0.0549677 81.2335 -0.00225374 81.4771 0.180512 81.5949L7.96384 86.6108C8.14661 86.7285 8.39021 86.6758 8.50796 86.493L18.3955 71.1395C18.5131 70.9567 18.4604 70.713 18.2777 70.5952ZM17.5204 71.0439L8.05926 85.7354L0.93778 81.1461L10.3989 66.4547L17.5204 71.0439Z" fill="#696969"/>
<path opacity="0.15" d="M201.894 256.174L151.709 237.921L117.433 332.233L167.616 350.484L201.894 256.174Z" fill="#696969"/>
<path opacity="0.15" d="M149.226 230.267C143.974 230.267 139.716 234.526 139.716 239.781C139.716 245.035 143.974 249.294 149.226 249.294C154.478 249.294 158.736 245.035 158.736 239.781C158.736 234.526 154.478 230.267 149.226 230.267ZM149.226 231.055C154.044 231.055 157.949 234.961 157.949 239.781C157.949 244.599 154.044 248.507 149.226 248.507C144.408 248.507 140.503 244.599 140.503 239.781C140.503 234.961 144.408 231.055 149.226 231.055Z" fill="#696969"/>
<path opacity="0.15" d="M272.339 193.377L270.682 227.439L301 211.841L272.339 193.377Z" fill="#696969"/>
</svg>
