<svg width="379" height="381" viewBox="0 0 379 381" fill="none" xmlns="http://www.w3.org/2000/svg">
<path opacity="0.15" fill-rule="evenodd" clip-rule="evenodd" d="M289.562 269.221C289.562 245.983 308.392 227.138 331.622 227.138C354.853 227.138 373.684 245.979 373.684 269.221C373.684 292.462 354.853 311.307 331.622 311.307C308.392 311.307 289.562 292.462 289.562 269.221Z" fill="black"/>
<path fill-rule="evenodd" clip-rule="evenodd" d="M64.9893 216.344C67.9568 213.603 78.3688 204.041 80.5237 203.066C82.6787 202.092 107.671 229.986 105.202 231.982C102.734 233.978 89.6699 246.014 84.757 249.076C74.9434 238.389 68.1199 226.117 64.9893 216.344Z" fill="#FFB6B6" fill-opacity="0.9"/>
<path d="M78.8845 200.32C79.2727 200.145 79.6674 200.245 80.1474 200.509C80.3176 200.603 80.5047 200.723 80.7095 200.869L80.7923 200.928C80.8202 200.948 80.8484 200.969 80.877 200.991L80.9636 201.056C80.9782 201.067 80.9928 201.078 81.0076 201.089L81.097 201.158L81.1884 201.231L81.2816 201.305L81.3768 201.383L81.4599 201.451L81.5446 201.522L81.6307 201.594L81.7182 201.67L81.8523 201.785L81.9895 201.906L82.1301 202.031L82.2737 202.16L82.4204 202.294L82.5703 202.432L82.672 202.527L82.8269 202.672L82.9849 202.822L83.1459 202.976L83.2548 203.081L83.4207 203.242L83.5894 203.408L83.7035 203.52L83.877 203.692L84.0532 203.869L84.2323 204.049L84.4141 204.233L84.5986 204.421L84.7858 204.613L84.9433 204.775L85.1024 204.941L85.2629 205.108L85.425 205.278L85.5885 205.45L85.7535 205.624L85.9197 205.801L86.1717 206.07L86.3412 206.251L86.5979 206.528L86.7705 206.715L86.9444 206.904L87.1192 207.095L87.2952 207.287L87.4722 207.481L87.6502 207.678L87.8292 207.876L88.0091 208.076L88.2806 208.378L88.5541 208.685L88.7373 208.89L89.0136 209.203L89.1987 209.413L89.4775 209.729L89.6641 209.943L89.9451 210.265L90.2272 210.59L90.5108 210.918L90.7948 211.247L91.0788 211.579L91.2697 211.803L91.5555 212.138L91.7464 212.363L91.9372 212.589L92.224 212.928L92.4148 213.157L92.7016 213.5L92.8924 213.729L93.0833 213.958L93.37 214.304L93.6558 214.651L93.9453 215.003L94.1416 215.243L94.4356 215.602L94.7268 215.961L95.0154 216.319L95.3021 216.674L95.4911 216.91L95.6802 217.147L95.8674 217.382L96.146 217.733L96.3306 217.967L96.6046 218.315L96.876 218.662L97.1446 219.005L97.3219 219.234L97.5851 219.575L97.7588 219.8L98.0166 220.137L98.1867 220.359L98.3549 220.581L98.5213 220.802L98.6869 221.021C98.714 221.057 98.7411 221.094 98.7692 221.13L98.932 221.348L99.093 221.563L99.2522 221.777L99.4883 222.097L99.643 222.308L99.7967 222.517L99.9478 222.724L100.098 222.93L100.245 223.135L100.391 223.338L100.535 223.539L100.677 223.739L100.817 223.937L100.955 224.132L101.091 224.326L101.225 224.519L101.356 224.709L101.486 224.897L101.614 225.083L101.739 225.268L101.862 225.451L101.983 225.631L102.138 225.863L102.232 226.006L102.324 226.147L102.415 226.286L102.504 226.425L102.592 226.56L102.679 226.695L102.763 226.829L102.846 226.96L102.927 227.091L103.007 227.219L103.085 227.347L103.162 227.472L103.236 227.596C103.248 227.616 103.261 227.637 103.273 227.657L103.381 227.839L103.451 227.959L103.519 228.076L103.586 228.192L103.651 228.307L103.714 228.419L103.776 228.53L103.836 228.64L103.894 228.749C103.904 228.766 103.913 228.784 103.923 228.801L103.978 228.907C103.988 228.924 103.997 228.941 104.006 228.959L104.06 229.062C104.068 229.079 104.077 229.096 104.085 229.113L104.136 229.214C104.145 229.23 104.153 229.246 104.161 229.263L104.209 229.361L104.255 229.457L104.3 229.552L104.343 229.645C104.35 229.66 104.357 229.675 104.364 229.691C104.62 230.254 104.78 230.73 104.839 231.125C104.921 231.671 104.822 232.131 104.445 232.436L104.394 232.477L104.284 232.569L104.183 232.655L104.095 232.729L103.953 232.852L103.77 233.013L103.539 233.218L103.38 233.36L103.106 233.608L102.882 233.812L102.429 234.226L101.82 234.787L101.071 235.48L96.8063 239.447L96.0863 240.114L95.019 241.101L94.5369 241.544L94.1371 241.912L93.8594 242.167L93.4496 242.542L92.9177 243.027L92.5279 243.38L92.1471 243.725L91.7744 244.061L91.4108 244.389L91.0553 244.706L90.7089 245.016L90.3708 245.316L90.15 245.511L89.8259 245.797L89.6145 245.981L89.3044 246.252L89.1023 246.428L88.8063 246.684L88.6135 246.848L88.4246 247.01L88.2392 247.168L88.0577 247.321L87.8798 247.471C87.8504 247.495 87.8212 247.52 87.7922 247.544L87.6199 247.687C87.5915 247.711 87.5632 247.734 87.535 247.758L87.3682 247.895L87.2052 248.029C87.1783 248.051 87.1515 248.073 87.1249 248.095L86.9674 248.222C86.9414 248.243 86.9155 248.264 86.8899 248.285L86.7378 248.406L86.5893 248.524L86.4445 248.638C86.4206 248.657 86.397 248.675 86.3735 248.693L86.2341 248.801C86.1883 248.836 86.143 248.871 86.0985 248.904L85.9664 249.005L85.838 249.1C85.6902 249.209 85.5499 249.311 85.417 249.404L85.3048 249.482C85.1761 249.571 85.0547 249.651 84.9407 249.724C84.6268 249.923 84.2111 249.829 84.0123 249.515C83.8136 249.201 83.9069 248.785 84.2208 248.586C84.4352 248.45 84.6804 248.281 84.9564 248.078L85.0766 247.99C85.097 247.974 85.1175 247.96 85.1381 247.943L85.2639 247.849C85.2852 247.833 85.3066 247.817 85.3282 247.799L85.4598 247.699C85.4819 247.682 85.5044 247.665 85.5269 247.647L85.664 247.54L85.8049 247.428L85.9496 247.314L86.0979 247.194L86.2501 247.071L86.406 246.944L86.5656 246.813L86.7291 246.677L86.8963 246.539C86.9244 246.515 86.9528 246.491 86.9813 246.467L87.154 246.323L87.3306 246.173L87.5109 246.02L87.6949 245.863L87.8827 245.702L88.0742 245.537L88.3685 245.282L88.5694 245.107L88.774 244.928L88.9823 244.745L89.3018 244.464L89.5195 244.272L89.853 243.975L90.08 243.773L90.4275 243.462L90.783 243.142L91.1476 242.814L91.5202 242.477L91.901 242.132L92.2909 241.777L92.688 241.414L93.0941 241.042L93.7454 240.444L94.5495 239.703L95.407 238.91L97.0895 237.346L99.9234 234.709L100.873 233.829L101.247 233.484L101.634 233.129L102.025 232.773L102.341 232.485L102.656 232.202L102.856 232.025L102.988 231.909L103.181 231.74L103.334 231.609L103.415 231.541L103.52 231.454V231.451C103.52 231.424 103.517 231.388 103.511 231.344L103.508 231.325C103.489 231.198 103.449 231.045 103.388 230.864L103.363 230.795C103.334 230.712 103.301 230.626 103.263 230.534L103.23 230.454C103.219 230.428 103.207 230.401 103.195 230.373L103.158 230.289C103.152 230.274 103.145 230.26 103.138 230.246L103.1 230.162C103.094 230.148 103.087 230.134 103.08 230.12L103.039 230.033L102.997 229.945L102.953 229.855L102.907 229.763L102.859 229.67L102.784 229.527L102.733 229.429L102.679 229.33L102.624 229.229C102.615 229.212 102.605 229.195 102.596 229.178L102.509 229.022L102.45 228.916L102.388 228.808L102.325 228.7L102.261 228.588L102.194 228.476L102.126 228.362L102.057 228.246L101.986 228.13L101.876 227.95L101.801 227.829L101.725 227.707L101.608 227.52L101.527 227.393L101.404 227.201L101.32 227.071L101.234 226.939L101.147 226.806L101.013 226.603L100.923 226.466L100.804 226.29L100.684 226.111L100.562 225.93L100.437 225.747L100.311 225.562L100.181 225.375L100.05 225.187L99.917 224.996L99.7813 224.803L99.6439 224.608L99.5046 224.412L99.3635 224.215L99.2205 224.015L99.0749 223.813L98.8542 223.508L98.7041 223.302L98.5521 223.095L98.3983 222.887L98.2436 222.677L98.0862 222.465L97.928 222.253L97.7679 222.038L97.605 221.822L97.359 221.496L97.1935 221.277L97.0261 221.057L96.857 220.835L96.6001 220.501L96.4273 220.277L96.2528 220.052L96.0773 219.825L95.9009 219.598L95.7218 219.37L95.5427 219.141L95.3618 218.911L95.1791 218.681L94.9964 218.449L94.8109 218.216L94.6255 217.983L94.4383 217.748L94.1561 217.396L93.9661 217.161L93.6794 216.806L93.4876 216.569L93.1972 216.214L93.0028 215.975L92.8065 215.737L92.5234 215.392L92.2393 215.048L91.9544 214.705L91.6695 214.364L91.4804 214.137L91.2905 213.91L91.0056 213.572L90.8165 213.347L90.5316 213.012L90.2483 212.679L90.0594 212.458L89.7767 212.128L89.5887 211.909L89.4011 211.692L89.1204 211.367L88.8408 211.046L88.5625 210.728L88.3776 210.517L88.1934 210.307L87.9182 209.995L87.7358 209.79L87.4634 209.483L87.2828 209.281L87.0136 208.981L86.7463 208.685L86.4813 208.392L86.2185 208.104L86.0446 207.914L85.8719 207.726L85.6149 207.447L85.3606 207.173L85.1927 206.993L85.0259 206.815L84.8606 206.639L84.6966 206.465L84.5341 206.294L84.373 206.125L84.2133 205.958L84.0551 205.794L83.8985 205.632L83.7006 205.428L83.5224 205.245L83.3469 205.067L83.1739 204.893L83.0038 204.722L82.8918 204.611L82.7263 204.447L82.5635 204.287L82.4566 204.182L82.351 204.08L82.2466 203.979L82.0925 203.831L81.9414 203.688L81.7933 203.547L81.6963 203.457L81.5532 203.325L81.4133 203.197L81.2765 203.073L81.1429 202.954L81.0556 202.877L80.9697 202.802L80.8854 202.728L80.8025 202.657L80.721 202.588L80.641 202.52C80.6278 202.509 80.6147 202.499 80.6016 202.488L80.5239 202.423L80.4456 202.36L80.369 202.298L80.2944 202.24C80.2821 202.23 80.2699 202.22 80.2577 202.211L80.1858 202.155L80.1158 202.102L80.0476 202.051L79.9814 202.003C79.9597 201.987 79.9382 201.972 79.917 201.956L79.8547 201.913L79.7944 201.871L79.736 201.832C79.717 201.821 79.6981 201.808 79.6798 201.796L79.6255 201.763C79.5812 201.736 79.539 201.711 79.499 201.689C79.4352 201.654 79.3805 201.627 79.3366 201.609L79.3232 201.603L79.2948 201.619C79.1775 201.682 79.0389 201.766 78.8799 201.872L78.7987 201.927C78.7848 201.936 78.7709 201.945 78.7568 201.955L78.6705 202.014L78.5809 202.077L78.4879 202.143L78.3916 202.213C78.3754 202.224 78.3589 202.236 78.3423 202.248L78.2412 202.322L78.1368 202.4L78.0292 202.48L77.9184 202.565L77.8045 202.651L77.6278 202.788L77.506 202.883L77.3812 202.982C77.3601 202.998 77.3389 203.015 77.3177 203.032L77.1883 203.135L77.0559 203.241L76.8518 203.405L76.641 203.576L76.4968 203.694L76.3498 203.815L76.1239 204.002L75.8916 204.194L75.6531 204.394L75.4083 204.6L75.1575 204.813L74.9006 205.031L74.6378 205.255L74.2784 205.564L73.9087 205.883L73.6248 206.129L73.3355 206.382L73.1395 206.553L72.9411 206.727L72.5373 207.081L72.3253 207.269C72.0226 207.536 71.7223 207.802 71.423 208.068L70.9626 208.478L70.5882 208.813L70.0256 209.317L69.4598 209.827L68.8887 210.344L68.3102 210.869L67.6229 211.495L67.0208 212.045L66.3002 212.707L65.4486 213.49L64.4484 214.413C64.1754 214.665 63.7498 214.648 63.4978 214.375C63.2457 214.101 63.2628 213.676 63.5357 213.424L64.5127 212.522L65.4476 211.662L66.1498 211.018L66.7372 210.481L67.3131 209.957L67.5975 209.698L68.2531 209.103L68.7162 208.685L69.0843 208.354L69.3596 208.107L69.5397 207.945C69.7198 207.784 69.8996 207.623 70.0794 207.462L70.2594 207.301C70.6494 206.954 71.0402 206.607 71.4352 206.259L71.7759 205.958L72.1098 205.665L72.4369 205.379L72.757 205.1L73.0703 204.828L73.3765 204.564L73.6758 204.306L73.9678 204.056L74.2529 203.813L74.439 203.656L74.6218 203.501L74.8015 203.35L75.0649 203.13L75.2365 202.987L75.405 202.848L75.6514 202.645L75.8115 202.515L75.9684 202.387L76.122 202.263L76.2723 202.143L76.4192 202.026L76.5628 201.913L76.7031 201.803L76.84 201.697L76.9735 201.594L77.1037 201.495L77.2304 201.399L77.3537 201.307C77.3739 201.292 77.3941 201.277 77.4141 201.262L77.5322 201.175C77.5517 201.161 77.571 201.147 77.59 201.134L77.703 201.052L77.8126 200.975C78.2617 200.66 78.6204 200.44 78.8845 200.32Z" fill="#141414"/>
<path fill-rule="evenodd" clip-rule="evenodd" d="M129.731 184.837C144.051 206.628 108.881 233.975 103.497 235.546C98.1145 237.117 74.9346 205.345 76.6131 201.161C78.2915 196.976 112.437 158.522 129.731 184.837Z" fill="#141414"/>
<path d="M111.174 172.626C118.065 172.223 123.922 175.219 128.401 182.033C131.88 187.327 132.705 193.202 131.192 199.456C129.898 204.807 126.922 210.313 122.64 215.755C119.107 220.247 114.799 224.534 110.414 228.111L110.305 228.201L110.086 228.378C109.831 228.583 109.577 228.785 109.326 228.983L109.111 229.151C108.932 229.29 108.754 229.427 108.578 229.562L108.367 229.722C108.297 229.775 108.228 229.828 108.158 229.88L107.95 230.036C107.673 230.242 107.401 230.441 107.133 230.634L106.934 230.777C106.901 230.801 106.867 230.824 106.835 230.848L106.638 230.987C106.246 231.263 105.866 231.522 105.501 231.764L105.32 231.883L105.141 231.999C103.72 232.916 102.546 233.537 101.794 233.757C100.176 234.23 97.7198 232.672 94.4291 229.472C94.203 229.252 93.9742 229.026 93.7426 228.792L93.568 228.615C93.4215 228.467 93.2749 228.316 93.1266 228.163L92.9484 227.976L92.7693 227.788L92.5884 227.598L92.4075 227.404L92.2248 227.21L92.0421 227.011C91.9806 226.945 91.919 226.878 91.8575 226.811L91.673 226.609C91.6423 226.575 91.6115 226.541 91.5808 226.506L91.3944 226.301L91.2072 226.093C91.1764 226.058 91.1448 226.023 91.114 225.988L90.9259 225.777C90.8942 225.742 90.8625 225.706 90.8318 225.671L90.6427 225.457L90.4526 225.24C90.421 225.204 90.3893 225.167 90.3575 225.131L90.1669 224.912C90.135 224.875 90.1032 224.838 90.0714 224.801L89.8798 224.579C89.8478 224.542 89.8157 224.504 89.7837 224.467L89.5913 224.241L89.3984 224.014L89.205 223.785L89.0111 223.554L88.8168 223.322L88.622 223.087C88.5895 223.049 88.557 223.01 88.5245 222.97L88.3291 222.733C88.2966 222.694 88.264 222.654 88.2313 222.614L88.0356 222.374L87.8394 222.134L87.643 221.891C87.6103 221.85 87.5776 221.81 87.5448 221.77L87.348 221.525L87.1511 221.278L86.954 221.03C86.921 220.99 86.8882 220.948 86.8553 220.906L86.6579 220.657C86.6251 220.615 86.5922 220.573 86.5592 220.531L86.3617 220.279L86.1641 220.026L85.9665 219.772C85.9336 219.729 85.9006 219.686 85.8677 219.644L85.6701 219.388L85.4724 219.13L85.2749 218.872C85.242 218.829 85.209 218.785 85.1762 218.742L84.9787 218.482L84.7886 218.229C84.7569 218.188 84.7253 218.146 84.6937 218.104L84.5046 217.851L84.3161 217.599L84.1284 217.346C84.0972 217.305 84.066 217.262 84.0348 217.219L83.8482 216.967C83.8172 216.924 83.7862 216.883 83.7553 216.84L83.5699 216.588L83.3854 216.334L83.2018 216.082L83.0191 215.829L82.8373 215.576L82.6566 215.324L82.4769 215.072C82.4469 215.029 82.4172 214.988 82.3873 214.946L82.2091 214.694L82.032 214.443L81.8561 214.191L81.6812 213.941L81.5076 213.691L81.3351 213.441L81.1639 213.192L80.9939 212.943L80.8253 212.696L80.658 212.448L80.492 212.202L80.3273 211.957L80.1642 211.713C80.1371 211.672 80.1101 211.631 80.0831 211.59L79.9222 211.347L79.7626 211.104L79.6047 210.863L79.4483 210.622L79.2935 210.383C79.2678 210.343 79.2422 210.304 79.2167 210.264L79.0643 210.027L78.9136 209.79C78.8886 209.751 78.8636 209.712 78.8388 209.672L78.6906 209.437C78.6661 209.399 78.6416 209.36 78.6171 209.321L78.4716 209.088L78.3278 208.857L78.1859 208.628L78.0457 208.399L77.9074 208.172L77.7711 207.947L77.6367 207.723L77.5043 207.501L77.3738 207.281L77.2454 207.062C77.2242 207.026 77.203 206.989 77.1819 206.953L77.0566 206.737L76.9333 206.523L76.8051 206.298L76.6723 206.064C74.5499 202.292 73.5971 199.721 74.0975 198.474C74.1564 198.329 74.2446 198.154 74.3598 197.954L74.4073 197.873L74.4576 197.788C74.4663 197.774 74.475 197.76 74.4839 197.746L74.5385 197.658C74.5478 197.643 74.5572 197.628 74.5668 197.613L74.6255 197.522L74.6869 197.427C74.6973 197.412 74.7079 197.396 74.7186 197.379L74.784 197.282C74.8062 197.249 74.829 197.216 74.8521 197.182L74.9228 197.08L74.9959 196.975L75.0716 196.868C75.0845 196.85 75.0974 196.832 75.1104 196.814L75.1899 196.704C75.2034 196.685 75.2169 196.667 75.2306 196.648L75.3137 196.535L75.3993 196.42L75.4872 196.303L75.5774 196.184L75.6699 196.063L75.7647 195.94L75.8617 195.816L75.9609 195.689L76.0623 195.561L76.1658 195.432L76.2713 195.3L76.379 195.167L76.4887 195.033L76.6004 194.897C76.6191 194.874 76.638 194.851 76.6569 194.828L76.7716 194.69L76.8881 194.55L77.0065 194.41L77.1268 194.268L77.2488 194.124L77.3728 193.98L77.4983 193.835C77.5194 193.81 77.5406 193.786 77.5618 193.761L77.6899 193.614L77.8198 193.465L77.9512 193.316L78.0843 193.166L78.2189 193.015L78.355 192.863L78.4927 192.71C78.7418 192.434 79.1672 192.412 79.4429 192.662C79.7185 192.911 79.7401 193.336 79.491 193.612L79.3598 193.758L79.2299 193.902L79.1014 194.047L78.9744 194.19L78.849 194.333L78.6636 194.545L78.5421 194.685L78.4222 194.824L78.3039 194.962L78.1297 195.167L78.0158 195.302L77.9036 195.435L77.7388 195.633L77.5783 195.827L77.4737 195.955L77.3711 196.082L77.2705 196.206L77.1719 196.329L77.0754 196.45L76.981 196.569L76.8888 196.687L76.7988 196.803L76.7109 196.916L76.6254 197.028L76.5421 197.138L76.4613 197.245C76.448 197.264 76.4348 197.281 76.4217 197.299L76.3443 197.403L76.2694 197.505L76.197 197.605L76.127 197.703C76.1157 197.719 76.1043 197.734 76.093 197.75L76.0269 197.845L75.9634 197.936L75.9025 198.025C75.8925 198.039 75.8827 198.054 75.8731 198.068L75.8161 198.153L75.7619 198.236C75.7531 198.249 75.7444 198.263 75.7358 198.276L75.6858 198.354C75.5237 198.611 75.4084 198.822 75.3459 198.977C75.3185 199.045 75.3045 199.14 75.3044 199.257L75.3048 199.298L75.3063 199.341C75.3066 199.347 75.307 199.354 75.3075 199.362L75.3105 199.407L75.3146 199.454C75.3161 199.469 75.3179 199.485 75.3197 199.502L75.3259 199.551L75.3331 199.603L75.3415 199.656C75.343 199.665 75.3445 199.674 75.3461 199.684L75.3559 199.74L75.367 199.798C75.3708 199.817 75.3748 199.836 75.379 199.856L75.3922 199.917L75.4064 199.979L75.4218 200.044L75.4382 200.109L75.4557 200.176L75.4743 200.245C75.4775 200.256 75.4808 200.268 75.4841 200.28L75.5044 200.35L75.5258 200.423L75.5483 200.497L75.5719 200.573L75.5968 200.65C75.601 200.663 75.6052 200.675 75.6096 200.689L75.6361 200.768L75.6637 200.848L75.6925 200.931L75.7224 201.014L75.7535 201.098L75.7858 201.184L75.8238 201.284L75.8678 201.397C75.8753 201.416 75.8829 201.435 75.8905 201.454L75.9372 201.57L75.9856 201.687L76.0356 201.806L76.0873 201.927L76.1407 202.05L76.1957 202.175L76.2524 202.302C76.262 202.322 76.2717 202.344 76.2814 202.365L76.3405 202.494L76.4014 202.626C76.4116 202.647 76.4219 202.669 76.4323 202.692L76.4956 202.825L76.5604 202.96L76.6269 203.097L76.6949 203.236L76.7646 203.376L76.8358 203.518C76.8477 203.541 76.8598 203.565 76.8719 203.589L76.9455 203.733L77.0206 203.879L77.0973 204.027L77.1755 204.176L77.2553 204.326L77.3366 204.478L77.4614 204.71L77.5464 204.865L77.633 205.023L77.7211 205.182L77.8107 205.342L77.9017 205.504L77.9943 205.667L78.041 205.75C78.0808 205.819 78.1209 205.889 78.1613 205.96L78.2838 206.171C78.325 206.242 78.3664 206.313 78.4083 206.385L78.5348 206.6L78.6635 206.818L78.794 207.037C78.816 207.073 78.8379 207.11 78.86 207.147L78.9935 207.368C79.016 207.405 79.0385 207.442 79.061 207.479L79.1974 207.703L79.3356 207.928C79.382 208.003 79.4288 208.079 79.4757 208.155L79.6176 208.383L79.7613 208.612L79.9067 208.843L80.0539 209.075L80.2027 209.309L80.3532 209.543L80.5054 209.78C80.5309 209.818 80.5564 209.858 80.5821 209.897L80.7366 210.135L80.8926 210.373C80.9187 210.413 80.945 210.453 80.9712 210.494L81.1296 210.733C81.1561 210.773 81.1827 210.813 81.2093 210.854L81.3698 211.095L81.5318 211.337L81.6952 211.58L81.8599 211.824L82.026 212.068L82.1934 212.314L82.3621 212.56C82.3903 212.6 82.4185 212.642 82.4469 212.683L82.6174 212.93L82.7891 213.177L82.9621 213.425L83.1361 213.673L83.3113 213.922L83.4875 214.171L83.6648 214.42L83.8431 214.67L84.0225 214.92L84.2027 215.17L84.3839 215.419L84.566 215.67C84.5964 215.712 84.6269 215.753 84.6574 215.795L84.8408 216.045C84.8714 216.087 84.902 216.129 84.9328 216.171L85.1174 216.42L85.3027 216.67L85.4889 216.921C85.52 216.962 85.551 217.004 85.5822 217.046L85.7694 217.295L85.9573 217.544L86.149 217.798L86.3442 218.055C86.3767 218.097 86.4093 218.14 86.4418 218.182L86.6371 218.438L86.8324 218.692L87.0277 218.944C87.0603 218.986 87.0928 219.029 87.1254 219.07L87.3206 219.321L87.5158 219.571L87.7109 219.819C87.7434 219.859 87.7759 219.901 87.8084 219.942L88.0032 220.188C88.0357 220.229 88.0682 220.27 88.1006 220.311L88.2953 220.554L88.4897 220.797L88.6839 221.039L88.8778 221.277L89.0715 221.515L89.2648 221.752L89.4578 221.986C89.4899 222.026 89.522 222.065 89.5541 222.103L89.7465 222.335L89.9385 222.566L90.1301 222.794L90.3211 223.021L90.5116 223.247L90.7015 223.469C90.7332 223.506 90.7649 223.544 90.7965 223.581L90.9856 223.801L91.1746 224.02L91.3619 224.236L91.55 224.45L91.7363 224.662L91.9218 224.873L92.1072 225.081C92.1379 225.116 92.1687 225.15 92.1995 225.184L92.384 225.389L92.5667 225.592C92.6282 225.658 92.6888 225.725 92.7494 225.792L92.9312 225.99C92.9909 226.056 93.0515 226.121 93.1112 226.186L93.2912 226.38C93.3509 226.444 93.4106 226.507 93.4703 226.571L93.6476 226.76C93.7363 226.853 93.8249 226.946 93.9126 227.038L94.0881 227.221C94.146 227.281 94.2039 227.341 94.2618 227.401L94.4355 227.578C94.5214 227.666 94.6073 227.754 94.6933 227.84L94.8633 228.011C95.0325 228.18 95.2007 228.345 95.3662 228.506L95.4992 228.635L95.6313 228.762C95.653 228.783 95.6747 228.803 95.6964 228.824L95.8266 228.948L95.9569 229.07L96.0853 229.19L96.212 229.308C96.2337 229.327 96.2545 229.347 96.2753 229.366L96.4019 229.481L96.5267 229.594L96.6507 229.705C96.6706 229.724 96.6914 229.742 96.7122 229.76L96.8343 229.868C96.875 229.904 96.9157 229.939 96.9555 229.973L97.0758 230.078L97.1952 230.18L97.3128 230.279C97.3716 230.329 97.4304 230.378 97.4883 230.425L97.6031 230.52L97.718 230.612L97.8311 230.704C97.8682 230.734 97.9053 230.763 97.9423 230.792L98.0536 230.878C98.0717 230.893 98.0907 230.907 98.1088 230.921L98.2182 231.004L98.3259 231.085C98.344 231.098 98.3611 231.112 98.3792 231.125L98.486 231.202C98.5565 231.254 98.6262 231.304 98.6949 231.352L98.7971 231.423L98.8984 231.493C98.9156 231.505 98.9328 231.516 98.9491 231.526L99.0486 231.592C99.0983 231.625 99.1472 231.657 99.196 231.688L99.2367 231.714L99.3172 231.764C99.3308 231.772 99.3435 231.78 99.357 231.788L99.4357 231.835L99.5135 231.881L99.5904 231.926C99.6031 231.933 99.6148 231.94 99.6275 231.946L99.7026 231.988C99.7152 231.995 99.727 232.002 99.7397 232.009L99.8129 232.048L99.8844 232.085C99.9088 232.097 99.9323 232.109 99.9558 232.12L100.025 232.155L100.093 232.187L100.16 232.218C100.171 232.222 100.183 232.228 100.194 232.232L100.259 232.261C100.281 232.27 100.301 232.278 100.323 232.288L100.385 232.313C100.427 232.328 100.468 232.344 100.508 232.358L100.566 232.378C100.576 232.381 100.586 232.384 100.595 232.387L100.652 232.405L100.708 232.421C101.002 232.503 101.241 232.516 101.417 232.465C101.82 232.347 102.397 232.074 103.103 231.67L103.246 231.588C103.631 231.364 104.052 231.103 104.501 230.811L104.671 230.698L104.844 230.584C104.902 230.545 104.961 230.507 105.019 230.468L105.197 230.347L105.377 230.224C105.467 230.162 105.559 230.098 105.652 230.034L105.837 229.905L106.024 229.772L106.214 229.637C106.278 229.591 106.342 229.545 106.406 229.498L106.6 229.358C106.632 229.335 106.665 229.311 106.697 229.287L106.893 229.144C106.959 229.095 107.025 229.046 107.091 228.997L107.291 228.848L107.492 228.697C107.659 228.57 107.829 228.44 107.999 228.309L108.205 228.15C108.514 227.91 108.827 227.663 109.142 227.41L109.353 227.24L109.564 227.068C113.876 223.55 118.113 219.333 121.582 214.923C125.754 209.62 128.64 204.279 129.884 199.14C131.313 193.234 130.542 187.74 127.276 182.772C123.06 176.357 117.659 173.595 111.253 173.97C105.786 174.29 99.7143 176.891 93.4106 181.266C93.1058 181.478 92.687 181.402 92.4744 181.097C92.2628 180.791 92.3387 180.372 92.6445 180.16C99.1318 175.657 105.42 172.963 111.174 172.626Z" fill="#141414"/>
<path fill-rule="evenodd" clip-rule="evenodd" d="M158.505 166.355C142.375 166.258 126.503 169.363 118.681 175.444C105.978 185.319 97.5291 246.366 101.173 264.533C118.623 277.331 140.15 284.892 163.444 284.892C181.834 284.892 199.12 280.177 214.172 271.898C216.837 249.215 210.269 184.369 199.881 176.48C191.025 169.752 174.635 166.452 158.505 166.355Z" fill="#141414"/>
<path d="M156.142 163.316C173.529 163.42 189.407 167.11 197.92 173.576C200.709 175.695 203.272 181.515 205.592 190.41C207.676 198.406 209.496 208.702 210.863 219.924C213.589 242.294 214.085 264.51 211.872 273.367C211.782 273.728 211.417 273.947 211.056 273.857C210.702 273.768 210.484 273.415 210.562 273.06L210.567 273.041C212.727 264.393 212.234 242.3 209.528 220.087C206.626 196.264 201.951 178.327 197.107 174.648C188.871 168.393 173.256 164.765 156.133 164.662C139.319 164.561 124.073 167.898 116.726 173.609C112.382 176.985 108.287 187.061 104.974 201.613C104.892 201.976 104.531 202.202 104.168 202.12C103.806 202.037 103.579 201.676 103.661 201.314C107.044 186.455 111.22 176.184 115.902 172.545C123.462 166.669 138.744 163.282 155.63 163.314L156.142 163.316Z" fill="#141414"/>
<path d="M97.9618 241.552C97.9853 241.181 98.3055 240.9 98.6755 240.923C99.0463 240.946 99.3285 241.266 99.305 241.637C98.7451 250.524 98.8157 257.885 99.5239 262.362C99.5818 262.729 99.3312 263.073 98.964 263.132C98.5977 263.19 98.253 262.939 98.1942 262.571C97.4679 257.978 97.3964 250.53 97.9618 241.552Z" fill="#141414"/>
<path d="M26.1702 0.478516L5.49958 55.2635C5.36838 55.6112 5.54377 55.9996 5.89134 56.1309L54.0658 74.3294C54.4134 74.4607 54.8016 74.2852 54.9328 73.9375L75.6102 19.1532C75.7415 18.8054 75.5661 18.4171 75.2185 18.2858L27.0372 0.0865323C26.6895 -0.0447657 26.3014 0.130733 26.1702 0.478516ZM27.1913 1.58362L74.1138 19.3074L53.9118 72.8322L6.99601 55.1091L27.1913 1.58362Z" fill="#777777"/>
<path d="M318.823 266.485L242.696 285.686C242.371 285.769 242.156 286.078 242.193 286.412L252.427 379.537C252.499 380.182 253.349 380.364 253.677 379.805L319.567 267.479C319.87 266.964 319.402 266.34 318.823 266.485ZM317.594 268.184L253.544 377.373L243.594 286.848L317.594 268.184Z" fill="#777777"/>
<path d="M53.6648 49.1733C37.6592 49.1733 24.6846 62.1542 24.6846 78.168C24.6846 94.1818 37.6577 107.163 53.6625 107.163C69.6678 107.163 82.6427 94.1809 82.6427 78.168C82.6427 62.1543 69.6696 49.1733 53.6648 49.1733ZM53.6648 50.5194C68.9265 50.5194 81.2972 62.8978 81.2972 78.168C81.2972 93.4379 68.9247 105.816 53.6625 105.816C38.4008 105.816 26.0301 93.4379 26.0301 78.168C26.0301 62.8977 38.4023 50.5194 53.6648 50.5194Z" fill="#777777"/>
<path fill-rule="evenodd" clip-rule="evenodd" d="M226.289 265.056C224.041 262.807 208.549 241.668 206.804 239.678C205.058 237.688 238.18 210.209 240.217 212.612C242.254 215.015 250.42 226.449 254.228 232.736C251.168 238.254 234.248 259.621 226.289 265.056Z" fill="#FFB6B6" fill-opacity="0.9"/>
<path d="M226.498 263.779L218.843 253.28L216.723 250.376L215.623 248.873L214.324 247.101L213.256 245.646L212.115 244.097L211.19 242.842L210.692 242.167L210.216 241.526L209.765 240.917L209.234 240.203L208.933 239.799L208.553 239.29L208.198 238.817L208.03 238.594L207.713 238.173L207.491 237.881L207.285 237.608L207.092 237.357L206.915 237.126L206.752 236.916L206.652 236.787L206.558 236.669L206.472 236.559L206.393 236.46L206.32 236.369L206.254 236.289L206.195 236.218L206.143 236.157C206.135 236.147 206.127 236.138 206.12 236.129C205.929 235.912 205.863 235.64 205.893 235.357C205.913 235.16 205.979 234.958 206.083 234.738C206.227 234.433 206.458 234.076 206.773 233.661L206.841 233.572L206.912 233.48L206.981 233.394L207.046 233.314C207.068 233.287 207.089 233.259 207.112 233.232L207.182 233.148L207.252 233.063L207.324 232.976L207.437 232.845L207.514 232.756L207.594 232.664L207.675 232.572L207.8 232.431L207.93 232.288L208.018 232.19L208.109 232.091L208.247 231.94L208.342 231.839L208.489 231.683L208.638 231.526L208.74 231.419L208.897 231.256L209.003 231.146L209.112 231.035L209.222 230.923L209.333 230.809L209.504 230.637L209.68 230.461L209.798 230.343L209.919 230.223L210.165 229.982L210.354 229.797L210.526 229.63L210.701 229.46L210.879 229.289L211.059 229.116L211.243 228.941L211.429 228.765L211.617 228.587L211.904 228.317L212.099 228.136L212.296 227.953L212.496 227.768L212.697 227.583L212.901 227.395L213.107 227.206L213.42 226.921L213.631 226.73L213.952 226.441L214.168 226.246L214.387 226.051L214.607 225.853L214.829 225.656L215.053 225.458L215.279 225.258L215.506 225.058L215.735 224.857L215.966 224.655L216.315 224.35L216.667 224.044L216.904 223.84L217.141 223.634L217.381 223.429L217.622 223.222L217.985 222.912L218.229 222.704L218.474 222.496L218.72 222.288L218.967 222.079L219.339 221.765L219.715 221.452L219.965 221.242L220.343 220.928L220.596 220.718L220.85 220.508L221.104 220.299L221.359 220.089L221.747 219.772L222.138 219.453L222.398 219.242L222.656 219.031L222.916 218.822L223.174 218.614L223.432 218.407L223.689 218.201L224.075 217.894L224.457 217.589L224.712 217.387L224.967 217.187L225.219 216.988L225.597 216.692L225.973 216.399L226.347 216.108L226.719 215.821L226.965 215.632L227.332 215.351L227.575 215.165L227.817 214.982L228.178 214.708L228.416 214.528L228.771 214.262C228.811 214.232 228.85 214.203 228.889 214.174L229.124 214L229.356 213.827L229.588 213.656L229.818 213.487L230.159 213.237L230.384 213.072L230.608 212.91L230.83 212.75L231.05 212.592L231.268 212.436L231.484 212.282C231.52 212.257 231.556 212.231 231.591 212.206L231.805 212.055L232.016 211.906L232.225 211.76L232.433 211.616L232.637 211.475L232.84 211.335L233.04 211.198L233.239 211.064L233.483 210.899L233.627 210.802L233.842 210.66L233.983 210.567L234.122 210.475L234.328 210.34L234.465 210.252L234.599 210.165L234.733 210.08L234.864 209.997L234.994 209.915L235.187 209.794L235.376 209.677L235.5 209.601L235.622 209.526L235.743 209.453L235.922 209.346L236.04 209.277L236.155 209.21L236.27 209.144L236.382 209.079L236.493 209.016L236.602 208.954L236.71 208.895C236.728 208.885 236.746 208.875 236.763 208.865L236.869 208.808L236.973 208.752L237.076 208.697C237.093 208.688 237.11 208.679 237.126 208.67L237.227 208.619L237.324 208.568L237.421 208.519L237.516 208.472L237.61 208.427C237.625 208.419 237.641 208.411 237.656 208.404C238.26 208.115 238.764 207.927 239.179 207.846C239.753 207.733 240.23 207.804 240.552 208.184L240.623 208.269C240.636 208.285 240.648 208.299 240.66 208.315L240.739 208.41L240.821 208.51L240.908 208.618L240.999 208.732L241.094 208.851L241.245 209.041L241.349 209.175L241.458 209.315L241.57 209.459L241.746 209.686L241.866 209.844L242.053 210.089L242.183 210.258L242.381 210.522L242.656 210.887L242.869 211.172L243.014 211.367L243.236 211.666L243.463 211.973L243.695 212.287L244.012 212.717L244.334 213.159L244.663 213.611L244.912 213.955L245.25 214.422L245.505 214.778L245.763 215.136L246.021 215.498L246.194 215.741L246.541 216.23L246.802 216.598L247.063 216.968L247.324 217.338L247.498 217.586L247.67 217.833C247.744 217.937 247.816 218.042 247.888 218.146L248.105 218.458L248.427 218.921L248.638 219.229L248.849 219.534L249.057 219.837C249.091 219.888 249.126 219.938 249.16 219.988L249.365 220.288L249.569 220.588L249.87 221.032L250.069 221.326L250.362 221.763L250.555 222.05L250.746 222.336L250.935 222.621L251.121 222.902L251.305 223.182L251.487 223.459L251.666 223.733L251.843 224.005L252.018 224.274C252.046 224.319 252.075 224.364 252.103 224.408L252.274 224.674L252.444 224.936L252.609 225.197L252.772 225.454L252.933 225.709L253.091 225.961L253.247 226.21C253.272 226.251 253.297 226.293 253.323 226.334L253.475 226.578L253.623 226.82L253.769 227.059C253.841 227.177 253.913 227.295 253.982 227.411L254.121 227.641L254.257 227.87L254.389 228.094L254.519 228.316C254.562 228.389 254.605 228.461 254.646 228.534L254.77 228.748C255.035 229.209 255.279 229.646 255.499 230.058L255.599 230.245C255.665 230.369 255.728 230.491 255.789 230.61C255.96 230.94 255.829 231.346 255.499 231.517C255.169 231.687 254.763 231.556 254.593 231.225C254.519 231.08 254.44 230.931 254.358 230.778L254.259 230.592L254.156 230.403C254.103 230.307 254.05 230.21 253.995 230.111L253.884 229.912L253.771 229.71C253.732 229.641 253.693 229.574 253.653 229.504L253.533 229.295C253.512 229.26 253.492 229.224 253.471 229.189L253.346 228.975L253.218 228.756L253.087 228.536L252.953 228.311C252.885 228.198 252.816 228.084 252.747 227.968L252.605 227.736C252.582 227.697 252.558 227.658 252.534 227.619L252.388 227.382L252.241 227.141L252.09 226.898L251.936 226.652C251.91 226.611 251.885 226.57 251.858 226.528L251.701 226.278L251.541 226.024C251.514 225.983 251.487 225.94 251.459 225.897L251.296 225.64L251.128 225.38L250.959 225.117L250.788 224.851L250.614 224.584L250.437 224.314L250.259 224.041C250.229 223.995 250.199 223.949 250.169 223.903L249.987 223.627L249.802 223.348L249.615 223.067L249.426 222.783L249.235 222.498L249.042 222.21L248.846 221.92L248.649 221.628L248.449 221.334L248.247 221.038L248.044 220.74L247.839 220.44L247.527 219.987L247.317 219.683L247.105 219.376L246.892 219.069L246.568 218.604L246.317 218.247L246.067 217.89L245.816 217.534L245.565 217.179L245.314 216.825L245.063 216.473L244.814 216.123L244.565 215.776L244.237 215.318L243.992 214.98L243.75 214.644L243.352 214.097L243.04 213.668L242.733 213.251L242.362 212.745L242.072 212.355L241.792 211.979L241.52 211.617L241.389 211.441L241.197 211.186L240.95 210.86L240.714 210.553L240.601 210.406L240.492 210.264L240.334 210.06L240.232 209.931L240.136 209.807L240.042 209.688L239.952 209.576L239.865 209.468L239.784 209.367L239.705 209.271L239.632 209.182L239.601 209.144H239.596C239.561 209.147 239.515 209.153 239.46 209.163L239.438 209.166C239.347 209.184 239.242 209.212 239.125 209.25L239.06 209.272L238.992 209.296C238.981 209.3 238.97 209.305 238.958 209.309L238.887 209.335L238.814 209.364L238.738 209.394C238.7 209.41 238.66 209.427 238.62 209.444L238.539 209.479C238.525 209.486 238.511 209.492 238.497 209.498L238.412 209.536L238.326 209.576L238.237 209.619L238.151 209.66L238.064 209.703C238.049 209.71 238.034 209.717 238.02 209.725L237.929 209.771L237.792 209.841L237.698 209.89L237.603 209.942L237.505 209.993L237.407 210.048L237.306 210.103L237.204 210.16L237.101 210.219L236.995 210.278L236.888 210.34L236.781 210.403L236.67 210.467L236.559 210.534L236.446 210.601L236.274 210.706L236.098 210.813L235.979 210.887L235.797 211L235.613 211.115L235.425 211.235L235.297 211.316L235.169 211.4L234.973 211.526L234.774 211.657L234.573 211.79L234.436 211.881L234.229 212.02L234.089 212.114L233.894 212.245L233.697 212.38L233.498 212.516L233.296 212.655L233.093 212.796L232.887 212.94L232.679 213.086L232.469 213.234L232.149 213.459L231.935 213.613L231.718 213.769L231.499 213.926L231.278 214.087L231.056 214.248L230.832 214.411L230.605 214.577L230.378 214.744L230.15 214.915L229.918 215.086L229.686 215.259L229.335 215.522L229.098 215.699L228.861 215.878L228.623 216.059L228.383 216.241L228.02 216.518L227.777 216.705L227.411 216.987L227.042 217.273L226.67 217.562L226.296 217.854L226.046 218.05L225.668 218.347L225.416 218.547L225.163 218.748L224.909 218.95L224.654 219.153L224.271 219.459L224.015 219.665L223.63 219.975L223.244 220.288L222.986 220.498L222.598 220.814L222.34 221.026L222.086 221.234L221.833 221.442L221.581 221.65L221.329 221.859L221.078 222.068L220.828 222.276L220.455 222.587L220.207 222.795L219.837 223.107L219.591 223.314L219.347 223.52L219.103 223.727L218.861 223.933L218.62 224.139L218.381 224.344L218.023 224.651L217.787 224.855L217.552 225.058L217.319 225.26L217.086 225.462L216.742 225.765L216.4 226.064L216.174 226.262L215.95 226.46L215.729 226.658L215.398 226.951L215.073 227.242L214.858 227.435L214.54 227.723C214.505 227.755 214.469 227.786 214.435 227.818L214.123 228.101L213.918 228.289L213.714 228.475L213.513 228.66L213.314 228.844L213.118 229.026L212.924 229.207L212.733 229.386L212.544 229.564L212.356 229.739L212.173 229.914L211.901 230.173L211.724 230.343L211.55 230.512L211.378 230.679L211.231 230.821L211.051 230.997L210.875 231.172L210.759 231.286L210.532 231.512L210.422 231.623L210.259 231.788L210.152 231.897L209.996 232.057L209.892 232.162L209.742 232.318L209.597 232.47L209.454 232.621L209.315 232.768L209.226 232.865L209.137 232.961L209.05 233.055L208.966 233.147L208.883 233.239L208.762 233.374L208.684 233.462L208.607 233.549L208.533 233.635L208.46 233.719L208.389 233.802L208.286 233.924L208.22 234.004L208.156 234.081L208.093 234.158L208.033 234.233L207.973 234.309L207.913 234.385L207.856 234.459L207.802 234.531L207.75 234.602L207.7 234.67L207.653 234.737L207.608 234.802L207.565 234.864C207.558 234.874 207.551 234.885 207.544 234.895L207.505 234.955C207.492 234.975 207.48 234.994 207.468 235.013L207.434 235.068C207.417 235.096 207.401 235.122 207.387 235.148L207.358 235.199C207.335 235.24 207.315 235.28 207.298 235.316C207.287 235.337 207.278 235.358 207.271 235.376L207.262 235.396L207.302 235.445L207.369 235.527L207.441 235.617L207.52 235.715L207.648 235.879L207.741 235.997L207.893 236.192L208 236.331L208.114 236.479L208.358 236.797L208.556 237.058L208.84 237.433L209.226 237.945L209.474 238.275L209.824 238.743L210.291 239.37L210.896 240.184L211.55 241.064L212.128 241.848L212.74 242.676L213.648 243.909L214.475 245.034L215.495 246.422L216.891 248.328L218.335 250.302L220.689 253.525L227.582 262.984C227.802 263.284 227.738 263.704 227.438 263.924C227.138 264.144 226.718 264.08 226.498 263.779Z" fill="#141414"/>
<path fill-rule="evenodd" clip-rule="evenodd" d="M190.696 173.233C207.422 161.752 247.789 201.185 247.689 212.94C247.587 224.696 211.695 246.056 205.717 242.971C199.128 239.574 165.032 190.841 190.696 173.233Z" fill="#141414"/>
<path d="M188.742 170.537C192.912 167.675 198.596 167.68 205.332 170.169C211.233 172.349 217.829 176.408 224.353 181.712C230.34 186.579 235.972 192.272 240.135 197.611C244.39 203.069 246.813 207.76 246.787 210.81C246.76 213.813 244.649 217.399 240.838 221.358C237.48 224.847 232.866 228.54 227.703 231.947C226.972 232.43 226.237 232.901 225.5 233.362L225.205 233.545C224.664 233.881 224.124 234.21 223.584 234.532L223.289 234.707C222.503 235.171 221.72 235.62 220.943 236.051L220.653 236.211C218.135 237.597 215.691 238.793 213.467 239.718C208.884 241.627 205.52 242.302 203.834 241.433C201.66 240.311 197.274 235.163 193.02 228.65C192.817 228.338 192.904 227.921 193.215 227.717C193.526 227.515 193.943 227.602 194.146 227.913C198.274 234.232 202.556 239.259 204.451 240.236C205.641 240.851 208.742 240.229 212.95 238.476C214.628 237.777 216.437 236.92 218.311 235.94L218.592 235.793C218.733 235.718 218.875 235.643 219.017 235.567L219.301 235.415C219.443 235.338 219.585 235.261 219.727 235.184L220.013 235.027L220.3 234.869C220.635 234.682 220.97 234.493 221.307 234.301L221.596 234.136C221.789 234.024 221.982 233.913 222.175 233.8L222.465 233.63C223.336 233.117 224.209 232.585 225.081 232.037L225.371 231.853C225.468 231.792 225.564 231.73 225.661 231.669L225.951 231.483L226.24 231.296L226.529 231.107C226.673 231.013 226.818 230.918 226.962 230.823C237.916 223.594 245.397 215.821 245.441 210.799C245.489 205.255 235.642 192.624 223.505 182.757C217.086 177.539 210.612 173.555 204.865 171.433C198.499 169.08 193.25 169.075 189.502 171.647C185.18 174.613 182.452 178.585 181.184 183.46C180.03 187.902 180.101 193.055 181.278 198.76C181.353 199.123 181.118 199.479 180.755 199.554C180.391 199.629 180.035 199.396 179.96 199.031C178.744 193.139 178.671 187.782 179.882 183.121C181.23 177.937 184.148 173.689 188.742 170.537Z" fill="#141414"/>
<path d="M163.451 73.2012C104.836 73.2012 57.3203 120.742 57.3203 179.385C57.3203 238.028 104.836 285.568 163.451 285.568C222.066 285.568 269.581 238.029 269.581 179.385C269.581 120.741 222.066 73.2012 163.451 73.2012ZM163.451 74.5473C221.322 74.5473 268.236 121.484 268.236 179.385C268.236 237.286 221.322 284.222 163.451 284.222C105.58 284.222 58.6658 237.285 58.6658 179.385C58.6658 121.485 105.58 74.5473 163.451 74.5473Z" fill="#777777"/>
<path fill-rule="evenodd" clip-rule="evenodd" d="M254.1 196.944C254.204 193.914 260.108 192.684 267.288 194.198C274.467 195.712 280.205 199.396 280.102 202.426C279.999 205.457 274.093 206.687 266.913 205.173C259.734 203.658 253.994 199.975 254.1 196.944Z" fill="#FFB6B6" fill-opacity="0.9"/>
<path fill-rule="evenodd" clip-rule="evenodd" d="M256.23 185.349C256.334 182.319 262.238 181.088 269.418 182.602C276.598 184.116 282.336 187.801 282.232 190.831C282.127 193.861 276.223 195.092 269.043 193.578C261.863 192.064 256.13 188.38 256.23 185.349Z" fill="#FFB6B6" fill-opacity="0.9"/>
<path fill-rule="evenodd" clip-rule="evenodd" d="M255.955 173.366C256.059 170.335 261.962 169.105 269.144 170.619C276.324 172.132 282.059 175.817 281.956 178.848C281.852 181.878 275.947 183.108 268.767 181.594C261.588 180.081 255.85 176.397 255.955 173.366Z" fill="#FFB6B6" fill-opacity="0.9"/>
<path d="M258.784 168.306C261.306 167.839 264.574 167.968 268.017 168.694C275.489 170.269 281.482 174.119 281.364 177.604C281.279 180.085 278.343 181.514 273.957 181.638C273.586 181.648 273.277 181.356 273.266 180.984C273.255 180.613 273.548 180.303 273.92 180.293C277.678 180.187 279.967 179.072 280.019 177.559C280.058 176.382 278.86 174.883 276.653 173.464C274.337 171.978 271.158 170.731 267.739 170.011C264.458 169.32 261.364 169.197 259.029 169.629C258.663 169.697 258.312 169.455 258.245 169.09C258.178 168.724 258.419 168.373 258.784 168.306Z" fill="#141414"/>
<path d="M256.869 180.929C259.45 179.811 263.699 179.709 268.292 180.677C275.763 182.253 281.758 186.103 281.638 189.588C281.547 192.258 278.159 193.704 273.231 193.629C272.859 193.624 272.563 193.318 272.568 192.946C272.574 192.575 272.88 192.278 273.251 192.284C277.527 192.348 280.237 191.192 280.293 189.542C280.334 188.366 279.135 186.866 276.927 185.448C274.612 183.961 271.432 182.715 268.014 181.995C263.67 181.078 259.69 181.174 257.404 182.164C257.063 182.313 256.667 182.155 256.519 181.814C256.372 181.473 256.528 181.077 256.869 180.929Z" fill="#141414"/>
<path d="M258.557 191.674C260.798 191.495 263.425 191.697 266.158 192.273C273.631 193.848 279.624 197.697 279.505 201.183C279.426 203.486 276.889 204.886 272.995 205.173C272.624 205.201 272.301 204.923 272.274 204.553C272.247 204.181 272.524 203.858 272.895 203.831C276.186 203.588 278.113 202.524 278.161 201.137C278.2 199.962 277.002 198.461 274.794 197.044C272.479 195.557 269.3 194.311 265.882 193.59C263.269 193.039 260.77 192.847 258.663 193.016C258.293 193.045 257.969 192.769 257.94 192.398C257.91 192.027 258.187 191.703 258.557 191.674Z" fill="#141414"/>
<path fill-rule="evenodd" clip-rule="evenodd" d="M44.3051 177.765C44.4088 174.734 50.3138 173.504 57.4937 175.019C64.6735 176.533 70.4101 180.216 70.3064 183.248C70.2027 186.279 64.2984 187.507 57.1178 185.994C49.9373 184.48 44.2013 180.796 44.3051 177.765Z" fill="#FFB6B6" fill-opacity="0.9"/>
<path fill-rule="evenodd" clip-rule="evenodd" d="M46.436 166.169C46.5396 163.139 52.4447 161.909 59.6245 163.423C66.8044 164.937 72.541 168.621 72.4373 171.654C72.3336 174.687 66.4292 175.914 59.2494 174.4C52.0696 172.886 46.3322 169.201 46.436 166.169Z" fill="#FFB6B6" fill-opacity="0.9"/>
<path fill-rule="evenodd" clip-rule="evenodd" d="M46.1615 154.186C46.2652 151.155 52.1703 149.925 59.3501 151.439C66.5299 152.953 72.2666 156.637 72.1628 159.668C72.0592 162.699 66.1548 163.928 58.975 162.415C51.7951 160.901 46.0585 157.215 46.1615 154.186Z" fill="#FFB6B6" fill-opacity="0.9"/>
<path d="M43.4832 152.464C43.6083 148.808 49.9336 147.49 57.4826 149.082C58.6081 149.319 59.7109 149.611 60.7712 149.95L60.9758 150.016C62.847 150.628 64.5802 151.385 66.0647 152.24C66.3866 152.426 66.4973 152.838 66.3119 153.16C66.1265 153.482 65.7151 153.592 65.3932 153.407C63.1448 152.112 60.2661 151.043 57.2054 150.4C56.6599 150.284 56.1196 150.185 55.5873 150.101L55.388 150.071C52.6698 149.663 50.1675 149.666 48.2334 150.068C46.0436 150.524 44.8652 151.421 44.8279 152.51C44.7889 153.652 45.9194 155.104 48.0183 156.489C48.3284 156.694 48.4139 157.112 48.2093 157.421C48.0046 157.732 47.5874 157.818 47.2772 157.613C44.8271 155.995 43.4242 154.194 43.4832 152.464Z" fill="#141414"/>
<path d="M43.7586 164.448C43.8838 160.792 50.2087 159.474 57.7584 161.065C60.7362 161.693 63.5535 162.706 65.8457 163.951C66.1723 164.129 66.2933 164.537 66.116 164.863C65.9387 165.19 65.5303 165.311 65.2038 165.134C63.0291 163.953 60.3346 162.985 57.481 162.382C54.0712 161.663 50.8675 161.561 48.5089 162.053C46.319 162.509 45.1406 163.406 45.1033 164.494C45.0482 166.102 47.2825 168.239 50.9704 169.947C51.3076 170.103 51.4544 170.503 51.2983 170.841C51.1423 171.178 50.7424 171.325 50.4052 171.169C46.2703 169.254 43.6788 166.775 43.7586 164.448Z" fill="#141414"/>
<path d="M41.6258 176.043C41.751 172.387 48.0765 171.069 55.6255 172.66C59.81 173.543 63.6507 175.181 66.1361 177.105C66.4299 177.333 66.4837 177.756 66.2563 178.05C66.0289 178.343 65.6063 178.398 65.3126 178.17C63.0001 176.379 59.3452 174.821 55.348 173.978C51.9385 173.258 48.7347 173.156 46.376 173.647C44.1862 174.103 43.0077 175 42.9705 176.089C42.8944 178.313 47.0674 181.348 52.8727 183.04C53.2294 183.144 53.4344 183.518 53.3305 183.875C53.2265 184.231 52.8531 184.437 52.4964 184.332C46.1484 182.483 41.5207 179.116 41.6258 176.043Z" fill="#141414"/>
<path d="M168.886 140.061L169.016 140.023L169.144 139.986C169.165 139.98 169.186 139.974 169.208 139.968L169.333 139.933L169.457 139.9L169.579 139.868L169.698 139.837C169.718 139.833 169.738 139.827 169.757 139.823L169.875 139.794L169.99 139.767L170.103 139.74L170.214 139.716C170.251 139.708 170.287 139.7 170.323 139.692L170.431 139.671L170.536 139.65C170.693 139.62 170.843 139.595 170.987 139.574L171.082 139.561C171.395 139.519 171.675 139.502 171.922 139.509C172.385 139.521 172.76 139.616 173.048 139.835C173.41 140.112 173.558 140.535 173.485 140.999L173.116 143.069L173.026 143.582L173.021 143.615C172.792 144.941 172.585 146.244 172.388 147.624C171.785 151.872 171.376 156.224 171.231 160.735C171.049 166.403 171.298 171.971 172.065 177.357C172.099 177.6 171.999 177.842 171.804 177.99C170.418 179.035 166.357 179.895 161.732 180.2C161.361 180.224 161.041 179.943 161.017 179.572C160.992 179.2 161.273 178.88 161.643 178.857C162.041 178.83 162.434 178.8 162.822 178.765L163.054 178.743C163.284 178.722 163.513 178.699 163.74 178.675L163.965 178.649L164.189 178.624C164.337 178.607 164.485 178.589 164.63 178.57L164.848 178.542C164.993 178.523 165.136 178.503 165.278 178.483L165.489 178.452C165.664 178.426 165.836 178.4 166.006 178.372L166.209 178.339C166.342 178.316 166.475 178.294 166.606 178.271L166.8 178.236L166.991 178.2C167.054 178.188 167.117 178.176 167.179 178.163L167.365 178.126C168.804 177.835 169.952 177.492 170.63 177.139L170.672 177.116L170.644 176.907C169.945 171.709 169.715 166.357 169.879 160.915L169.886 160.692C170.034 156.128 170.446 151.728 171.056 147.434C171.243 146.122 171.439 144.88 171.654 143.622L171.75 143.068L172.14 140.88L172.134 140.879C172.075 140.867 172.002 140.859 171.915 140.855L171.886 140.854C171.83 140.853 171.771 140.853 171.709 140.855L171.646 140.858C171.474 140.867 171.278 140.89 171.06 140.924L170.976 140.938L170.891 140.953L170.805 140.969L170.716 140.986C170.7 140.989 170.685 140.992 170.67 140.996L170.578 141.015C170.563 141.018 170.547 141.021 170.531 141.024L170.436 141.045L170.34 141.067L170.24 141.091L170.14 141.115L170.037 141.14L169.932 141.167L169.826 141.195L169.717 141.224L169.607 141.254L169.495 141.286L169.381 141.319L169.265 141.352L169.128 141.393L168.987 141.435C168.964 141.443 168.94 141.45 168.917 141.457L168.774 141.501L168.628 141.548L168.482 141.596L168.332 141.644C168.308 141.653 168.283 141.661 168.257 141.67L168.105 141.72L167.952 141.773L167.796 141.827L167.64 141.882L167.48 141.938L167.319 141.996L167.157 142.055C167.13 142.065 167.103 142.075 167.075 142.085L166.828 142.177C166.8 142.187 166.772 142.198 166.745 142.208L166.577 142.272L166.408 142.337C166.379 142.348 166.351 142.358 166.323 142.369L166.151 142.436C166.122 142.447 166.093 142.459 166.065 142.47L165.891 142.539L165.716 142.607L165.539 142.679C165.51 142.691 165.48 142.702 165.451 142.714L165.273 142.786L165.093 142.86L164.913 142.934L164.64 143.048L164.364 143.165L164.087 143.283L163.9 143.363L163.713 143.444L163.525 143.527L163.336 143.61L163.146 143.694C163.114 143.709 163.083 143.722 163.051 143.737L162.859 143.823L162.667 143.909L162.475 143.996L162.282 144.084L161.991 144.218L161.796 144.309L161.601 144.4L161.405 144.492L161.208 144.585L161.012 144.679L160.815 144.773L160.617 144.868L160.409 144.969L160.19 145.076L159.971 145.183L159.754 145.291C159.718 145.309 159.681 145.327 159.645 145.344L159.428 145.453L159.212 145.561L158.997 145.67L158.782 145.779L158.568 145.889L158.355 145.998L158.144 146.109L157.932 146.218L157.722 146.329L157.513 146.439L157.306 146.55L157.099 146.661L156.894 146.772L156.69 146.882L156.487 146.994L156.285 147.104L156.085 147.215L155.887 147.326L155.69 147.437L155.493 147.548C155.461 147.567 155.428 147.585 155.397 147.603L155.203 147.713L155.011 147.824C154.98 147.843 154.948 147.861 154.916 147.879L154.727 147.989L154.54 148.099L154.355 148.209L154.171 148.319L153.989 148.427L153.809 148.536C153.779 148.554 153.75 148.572 153.72 148.59L153.543 148.699C153.484 148.735 153.426 148.771 153.368 148.806L153.195 148.914L153.025 149.021L152.857 149.128C152.801 149.163 152.745 149.198 152.69 149.234L152.527 149.339C152.499 149.358 152.472 149.375 152.445 149.392L152.285 149.497C152.259 149.515 152.233 149.532 152.205 149.549L152.049 149.654C152.024 149.671 151.997 149.688 151.972 149.705L151.819 149.808L151.679 149.903L151.491 150.034L151.367 150.12L151.246 150.205C151.226 150.219 151.206 150.233 151.186 150.247L151.068 150.331L150.953 150.416C150.934 150.429 150.915 150.443 150.896 150.457L150.783 150.539C150.765 150.553 150.746 150.567 150.727 150.58L150.618 150.663C150.6 150.676 150.582 150.69 150.564 150.703L150.458 150.784L150.354 150.863L150.253 150.942L150.153 151.021L150.055 151.099C150.04 151.111 150.024 151.124 150.008 151.138L149.914 151.214L149.823 151.29C149.808 151.302 149.793 151.315 149.778 151.327L149.69 151.402L149.604 151.476L149.521 151.549C149.343 151.706 149.182 151.857 149.038 152.003L148.972 152.07L148.908 152.137C148.66 152.4 148.478 152.635 148.368 152.833C148.315 152.928 148.281 153.009 148.265 153.073C148.255 153.113 148.254 153.138 148.255 153.148C148.485 154.427 148.624 157.078 148.687 160.556L148.695 161.046C148.697 161.129 148.698 161.212 148.7 161.295L148.706 161.801C148.709 161.971 148.71 162.143 148.712 162.317L148.718 162.843C148.72 163.196 148.723 163.556 148.725 163.921L148.727 164.474C148.728 165.029 148.729 165.598 148.728 166.178L148.728 166.761L148.725 167.351C148.725 167.45 148.724 167.55 148.724 167.649L148.72 168.249L148.716 168.855L148.711 169.466C148.71 169.569 148.709 169.672 148.709 169.775L148.702 170.394L148.695 171.019L148.687 171.648L148.679 172.283L148.669 172.92C148.667 173.027 148.665 173.133 148.664 173.24L148.653 173.884L148.642 174.53L148.63 175.179L148.617 175.83L148.604 176.484L148.589 177.139C148.586 177.248 148.585 177.358 148.582 177.467C148.573 177.839 148.265 178.133 147.894 178.125C147.523 178.116 147.228 177.809 147.237 177.437L147.251 176.789L147.265 176.143L147.278 175.498C147.28 175.39 147.282 175.284 147.284 175.176L147.296 174.534L147.307 173.895L147.317 173.259C147.319 173.153 147.321 173.047 147.323 172.942L147.332 172.311L147.341 171.683L147.348 171.059C147.35 170.956 147.351 170.852 147.352 170.749L147.359 170.132C147.36 170.03 147.361 169.928 147.362 169.826L147.367 169.216L147.372 168.612C147.373 168.412 147.374 168.212 147.375 168.014L147.379 167.422L147.381 166.837C147.381 166.739 147.382 166.642 147.382 166.546L147.382 165.97V165.402L147.382 164.842C147.382 164.75 147.381 164.657 147.381 164.565L147.379 164.017L147.375 163.477C147.375 163.388 147.374 163.299 147.373 163.21L147.37 162.684C147.368 162.511 147.366 162.338 147.364 162.168L147.358 161.66L147.351 161.163L147.343 160.676C147.283 157.227 147.15 154.607 146.931 153.386C146.737 152.301 147.839 151.022 150.029 149.421L150.18 149.311C150.333 149.201 150.491 149.089 150.654 148.976L150.818 148.862C150.874 148.824 150.929 148.786 150.986 148.747L151.144 148.64L151.304 148.533C151.357 148.497 151.411 148.462 151.466 148.425L151.631 148.317L151.798 148.208L151.968 148.099C152.054 148.044 152.139 147.988 152.227 147.933L152.403 147.823C152.461 147.786 152.52 147.749 152.58 147.711L152.76 147.6L152.942 147.489L153.125 147.377C153.156 147.358 153.188 147.339 153.219 147.32L153.405 147.207L153.594 147.095L153.785 146.982L153.977 146.868C154.01 146.849 154.043 146.831 154.075 146.812L154.271 146.698L154.468 146.584C154.533 146.546 154.6 146.508 154.666 146.47L154.867 146.356L155.068 146.242L155.272 146.128L155.477 146.014L155.683 145.899C155.718 145.88 155.753 145.861 155.787 145.842L155.996 145.728C156.031 145.709 156.066 145.69 156.1 145.671L156.311 145.557L156.523 145.443L156.736 145.329L156.951 145.215L157.166 145.101L157.382 144.987L157.599 144.874L157.818 144.761L158.037 144.648L158.257 144.536L158.478 144.424L158.7 144.312C158.737 144.293 158.774 144.274 158.811 144.256L159.034 144.145L159.257 144.034L159.482 143.923L159.707 143.814C159.744 143.796 159.782 143.777 159.819 143.758L160.032 143.655L160.234 143.558L160.435 143.462L160.635 143.367L160.935 143.225L161.234 143.086L161.432 142.994L161.63 142.902L161.926 142.767L162.122 142.678L162.318 142.59L162.61 142.46L162.804 142.374L162.997 142.289L163.189 142.205L163.38 142.122L163.571 142.04L163.76 141.959L163.948 141.879L164.135 141.8L164.322 141.722L164.507 141.645C164.538 141.633 164.569 141.62 164.599 141.608L164.873 141.496L165.055 141.423L165.235 141.35L165.414 141.279L165.593 141.209C165.622 141.197 165.651 141.186 165.681 141.175L165.857 141.107L166.031 141.04L166.204 140.974L166.46 140.878L166.629 140.815L166.797 140.754L166.963 140.694C166.99 140.684 167.017 140.674 167.045 140.664L167.208 140.606L167.37 140.55L167.53 140.495L167.688 140.441L167.845 140.388L168 140.337L168.152 140.287C168.177 140.279 168.202 140.271 168.227 140.263L168.378 140.215C168.426 140.2 168.476 140.185 168.525 140.169L168.671 140.125L168.815 140.081C168.838 140.074 168.862 140.067 168.886 140.061Z" fill="#141414"/>
<path fill-rule="evenodd" clip-rule="evenodd" d="M121.614 120.625C123.159 101.657 137.387 87.3182 153.392 88.5974C169.342 89.8723 181.039 106.177 179.589 125.062C180.671 126.35 181.322 128.012 181.322 129.826C181.322 132.821 179.547 135.401 176.993 136.57C176.181 138.657 175.205 140.633 174.084 142.475C174.505 142.557 174.709 142.781 174.641 143.17C174.603 143.385 174.557 143.639 174.505 143.926C173.624 148.807 170.941 163.672 173.222 179.71C170.437 181.816 154.199 183.337 149.732 179.71C149.869 173.713 150.007 162.493 149.623 157.368C149.017 157.364 148.408 157.338 147.795 157.289C131.791 156.011 120.067 139.593 121.614 120.625Z" fill="#FFB6B6" fill-opacity="0.9"/>
<path d="M127.231 144.53C127.522 144.298 127.945 144.346 128.177 144.638C132.887 150.556 139.303 154.183 146.371 154.748C152.109 155.207 157.76 153.61 162.718 150.226C163.025 150.017 163.444 150.096 163.653 150.403C163.862 150.71 163.783 151.129 163.476 151.338C158.271 154.891 152.316 156.574 146.264 156.09C138.812 155.495 132.059 151.678 127.124 145.476C126.892 145.185 126.941 144.762 127.231 144.53Z" fill="#141414"/>
<path d="M119.467 118.705C121.041 99.3898 135.568 84.7501 151.971 86.0611C168.375 87.3722 180.343 104.131 178.769 123.447C178.306 129.133 176.71 134.533 174.137 139.296C173.961 139.623 173.553 139.745 173.225 139.568C172.899 139.391 172.777 138.983 172.954 138.656C175.438 134.058 176.98 128.839 177.429 123.338C178.946 104.717 167.471 88.6504 151.864 87.403C136.255 86.1556 122.325 100.194 120.808 118.814C120.424 123.529 120.867 128.173 122.081 132.521C122.181 132.88 121.972 133.251 121.614 133.35C121.256 133.451 120.885 133.242 120.785 132.883C119.529 128.382 119.07 123.578 119.467 118.705Z" fill="#141414"/>
<path fill-rule="evenodd" clip-rule="evenodd" d="M149.751 113.698C149.971 111.648 150.903 110.067 151.83 110.167C152.758 110.267 153.33 112.011 153.108 114.061C152.887 116.11 151.955 117.692 151.029 117.59C150.102 117.49 149.529 115.747 149.751 113.698Z" fill="#141414"/>
<path d="M136.343 115.264C136.427 114.902 136.789 114.677 137.151 114.761C137.512 114.845 137.738 115.206 137.654 115.568C136.856 119.01 134.683 122.71 132.205 124.668C131.913 124.898 131.49 124.849 131.26 124.557C131.03 124.265 131.079 123.841 131.371 123.612C133.596 121.854 135.611 118.421 136.343 115.264Z" fill="#141414"/>
<path d="M146.315 131.119C144.082 131.119 142.272 132.93 142.272 135.164C142.272 137.397 144.082 139.208 146.315 139.208C148.547 139.208 150.357 137.397 150.357 135.164C150.357 132.93 148.547 131.119 146.315 131.119ZM146.315 132.465C147.804 132.465 149.011 133.673 149.011 135.164C149.011 136.654 147.804 137.862 146.315 137.862C144.825 137.861 143.618 136.654 143.618 135.164C143.618 133.673 144.825 132.465 146.315 132.465Z" fill="#141414"/>
<path fill-rule="evenodd" clip-rule="evenodd" d="M171.124 125.799C169.09 125.654 163.249 117.317 169.241 111.586C166.301 108.72 149.007 95.7691 128.231 103.801C125.532 101.055 118.163 90.0119 124.523 85.2508C130.883 80.4896 133.54 86.2472 134.364 88.5356C132.442 82.4938 133.524 66.2423 149.697 66.062C165.87 65.8828 183.259 113.162 182.557 121.646C181.854 130.131 181.818 131.277 171.124 125.799Z" fill="#EDCA55"/>
<path d="M170.13 87.443C170.464 87.2814 170.867 87.422 171.028 87.7568C176.86 99.8525 181.285 113.919 180.903 118.546L180.789 119.897L180.753 120.296L180.725 120.603L180.703 120.838L180.681 121.065L180.658 121.284L180.636 121.494L180.608 121.745L180.591 121.89L180.58 121.985L180.556 122.169L180.533 122.346L180.516 122.475L180.503 122.559L180.485 122.682L180.467 122.801L180.448 122.918L180.435 122.994L180.416 123.105L180.39 123.25L180.369 123.355L180.348 123.457L180.327 123.558L180.306 123.656L180.284 123.751L180.261 123.846L180.246 123.907L180.23 123.968L180.206 124.057L180.19 124.116L180.174 124.174L180.156 124.232L180.139 124.289C180.099 124.42 180.056 124.546 180.011 124.667L179.979 124.746C179.598 125.704 179.028 126.304 178.181 126.548C176.735 126.964 174.727 126.339 170.397 124.202L170.099 124.054C170.048 124.028 169.998 124.003 169.947 123.978L169.637 123.823C169.584 123.797 169.532 123.77 169.479 123.743L169.158 123.581C169.104 123.553 169.05 123.526 168.995 123.498L168.662 123.329L168.595 123.294L168.572 123.29C167.128 123.009 165.184 120.619 164.241 117.934L164.211 117.849C163.652 116.217 163.467 114.542 163.733 112.938C164.002 111.312 164.724 109.807 165.927 108.48L165.95 108.455L165.849 108.367L165.757 108.289C165.742 108.275 165.726 108.263 165.711 108.249L165.616 108.169L165.519 108.088L165.42 108.006L165.317 107.922C165.3 107.909 165.282 107.894 165.265 107.881L165.159 107.796L165.051 107.71L164.94 107.622L164.827 107.534L164.712 107.445L164.595 107.356L164.475 107.265C164.456 107.251 164.436 107.235 164.415 107.22L164.293 107.129L164.169 107.037L164.042 106.945L163.915 106.852L163.784 106.759L163.653 106.664L163.52 106.57L163.386 106.476L163.188 106.34C161.37 105.088 159.306 103.886 157.07 102.824C151.235 100.053 144.921 98.5304 138.381 98.7485C138.01 98.7602 137.699 98.4688 137.686 98.0978C137.674 97.7258 137.964 97.4154 138.336 97.4027C145.107 97.1774 151.629 98.7494 157.647 101.607C159.949 102.701 162.076 103.939 163.951 105.231L164.079 105.32L164.207 105.408L164.333 105.497L164.457 105.585L164.58 105.673L164.703 105.76L164.883 105.892C164.902 105.906 164.922 105.92 164.942 105.935L165.118 106.065L165.233 106.151L165.347 106.237L165.459 106.322L165.569 106.406L165.677 106.491L165.783 106.574L165.94 106.697L166.042 106.778L166.143 106.859L166.24 106.939L166.384 107.057L166.477 107.135L166.568 107.211L166.657 107.287L166.743 107.361L166.828 107.435L166.91 107.507L166.989 107.578C167.003 107.59 167.015 107.602 167.029 107.614L167.105 107.683L167.178 107.751C167.191 107.762 167.203 107.773 167.214 107.785L167.285 107.851L167.352 107.915C167.364 107.926 167.375 107.937 167.385 107.948C167.658 108.213 167.656 108.653 167.381 108.916C164.913 111.275 164.415 114.29 165.484 117.413C165.912 118.66 166.576 119.837 167.322 120.737C167.654 121.137 167.988 121.462 168.288 121.684C168.313 121.703 168.338 121.721 168.362 121.737L168.41 121.77C168.417 121.775 168.426 121.78 168.433 121.785L168.479 121.814C168.635 121.91 168.759 121.961 168.836 121.97L168.847 121.971C168.938 121.978 169.025 122.002 169.106 122.044L169.419 122.203C169.47 122.229 169.521 122.256 169.572 122.282L169.874 122.435L170.17 122.583L170.457 122.728L170.739 122.868L171.014 123.004L171.282 123.135C171.326 123.157 171.37 123.179 171.414 123.199L171.672 123.325L171.924 123.446C172.256 123.605 172.572 123.752 172.871 123.889L173.093 123.99C175.645 125.142 177.006 125.485 177.809 125.255C178.463 125.066 178.839 124.401 179.124 122.628L179.149 122.476C179.152 122.45 179.156 122.424 179.161 122.398L179.183 122.237C179.195 122.156 179.207 122.072 179.218 121.986L179.24 121.812C179.244 121.782 179.247 121.752 179.251 121.722L179.274 121.54C179.281 121.477 179.288 121.414 179.295 121.351L179.317 121.156L179.338 120.955C179.349 120.853 179.359 120.749 179.37 120.642L179.39 120.427C179.394 120.389 179.397 120.352 179.4 120.315L179.421 120.09C179.425 120.052 179.428 120.014 179.431 119.975L179.561 118.435C179.649 117.374 179.427 115.615 178.934 113.363L178.877 113.111C178.839 112.941 178.801 112.769 178.76 112.595L178.697 112.331L178.632 112.063C178.435 111.254 178.208 110.394 177.954 109.492L177.868 109.189L177.78 108.884C177.573 108.168 177.349 107.426 177.109 106.664C175.28 100.851 172.709 94.3412 169.816 88.3416C169.655 88.0069 169.795 87.6045 170.13 87.443Z" fill="#141414"/>
<path d="M147.366 62.2335C151.444 62.1881 155.69 64.9117 159.991 69.9443C160.233 70.2269 160.199 70.6517 159.917 70.8933C159.635 71.1348 159.21 71.1017 158.968 70.8192C154.901 66.0598 150.972 63.5396 147.38 63.5796C143.67 63.621 140.647 64.5305 138.27 66.1958C136.169 67.6675 134.596 69.7156 133.54 72.208C132.613 74.3943 132.111 76.8684 132.022 79.3688C131.945 81.5587 132.197 83.6551 132.68 85.1763C132.948 86.0162 131.703 86.4371 131.406 85.6074C130.793 83.8973 129.953 82.4715 128.802 81.6395C127.227 80.5002 125.236 80.6622 122.602 82.6343C120.045 84.5488 119.747 87.7779 121.285 91.8898C121.906 93.5486 122.805 95.2681 123.858 96.8916L123.941 97.0183L124.023 97.1441L124.107 97.269L124.19 97.3921L124.274 97.5142C124.288 97.5351 124.302 97.555 124.316 97.5758L124.4 97.6962L124.483 97.8156L124.566 97.9342C124.581 97.9532 124.594 97.9731 124.609 97.9921L124.692 98.1079L124.775 98.2229L124.858 98.336L124.941 98.4473L125.023 98.5568C125.036 98.5749 125.051 98.593 125.065 98.6111L125.146 98.7179L125.227 98.8238C125.241 98.841 125.254 98.8582 125.268 98.8753L125.349 98.9776L125.428 99.0781C125.442 99.0944 125.454 99.1116 125.468 99.1278L125.547 99.2247L125.624 99.3197L125.702 99.4129L125.778 99.5034L125.854 99.5921C125.891 99.6355 125.928 99.6781 125.965 99.7197L126.039 99.8021C126.075 99.8428 126.11 99.8826 126.146 99.9206L126.216 99.9966L126.285 100.07C126.296 100.082 126.307 100.093 126.319 100.105L126.386 100.174C126.647 100.439 126.643 100.865 126.378 101.126C126.113 101.387 125.687 101.383 125.426 101.118C123.601 99.26 121.254 95.6436 120.025 92.3622C119.241 90.2653 118.885 88.3036 119.046 86.5544C119.235 84.5056 120.133 82.8019 121.796 81.5565C124.874 79.2526 127.503 79.0387 129.591 80.5485C129.981 80.8305 130.341 81.1657 130.674 81.5478L130.708 81.5877L130.706 81.5534C130.664 80.8587 130.652 80.14 130.674 79.4122L130.678 79.3212C130.772 76.6636 131.307 74.0284 132.302 71.6824C133.452 68.9676 135.18 66.717 137.498 65.0931C140.105 63.267 143.392 62.2778 147.366 62.2335Z" fill="#141414"/>
<path d="M169.865 121.477C173.314 119.89 177.402 120.918 179.691 123.95C181.979 126.981 181.851 131.197 179.38 134.082C176.911 136.967 172.767 137.745 169.421 135.948C169.094 135.773 168.971 135.364 169.146 135.037C169.322 134.709 169.73 134.586 170.057 134.763C172.846 136.259 176.3 135.612 178.359 133.207C180.417 130.802 180.525 127.287 178.617 124.761C176.709 122.234 173.302 121.377 170.426 122.7C170.089 122.856 169.689 122.707 169.534 122.37C169.379 122.032 169.526 121.632 169.865 121.477Z" fill="#141414"/>
</svg>
